<svg version="1.1" id="Layer_1" xmlns="http://www.w3.org/2000/svg" xmlns:xlink="http://www.w3.org/1999/xlink" x="0px" y="0px"
	 width="100%" viewBox="0 0 1024 1024" enable-background="new 0 0 1024 1024" xml:space="preserve">
<path fill="#000000" opacity="1.000000" stroke="none" 
	d="
M630.906738,696.137207 
	C607.631531,702.659119 584.642700,708.795532 561.060547,711.969788 
	C535.935486,715.351685 510.679962,715.666565 485.356323,713.729553 
	C470.761414,712.613098 456.099487,711.900391 441.912231,708.268921 
	C401.108765,697.824585 360.578156,686.524597 323.174927,666.359253 
	C293.832336,650.539795 267.287292,630.720703 242.159348,609.045959 
	C210.868027,582.054932 183.587006,551.327698 159.948700,517.401672 
	C155.847687,511.515869 156.090729,504.269958 161.175568,497.483673 
	C181.057343,470.949310 202.010788,445.440369 225.391098,421.732330 
	C267.305511,379.230438 317.315735,349.873535 372.070862,327.977234 
	C398.971741,317.219727 427.247528,310.617950 455.836700,305.921417 
	C478.567963,302.187164 501.590454,301.877014 524.553406,302.788269 
	C568.387695,304.527710 610.932556,313.032196 651.988037,328.607147 
	C714.650391,352.378967 769.557129,387.761353 815.358948,437.060303 
	C832.067078,455.044281 847.139282,474.284302 862.052368,493.697845 
	C864.381348,496.729645 866.579712,499.885773 867.600342,503.674896 
	C868.808777,508.160767 868.777161,512.325806 866.127991,516.541321 
	C853.739075,536.255615 838.101135,553.346375 822.937927,570.847168 
	C788.475647,610.622192 747.225037,641.848755 701.358643,667.120178 
	C679.144531,679.359741 655.523010,688.508728 630.906738,696.137207 
M365.820251,616.693787 
	C413.672638,676.456848 474.976044,702.105591 550.669128,686.310852 
	C606.210938,674.721069 647.796875,642.381470 675.005554,592.487976 
	C692.979797,559.527893 698.757507,523.983398 694.778748,486.715485 
	C692.586731,466.183258 687.708984,446.375916 678.428040,427.940613 
	C642.592285,356.757874 565.836792,314.541290 481.753082,328.393097 
	C427.827545,337.276703 385.984497,365.502472 356.897308,411.635223 
	C332.606781,450.160431 324.514954,492.507660 331.612122,537.491150 
	C336.184601,566.472717 348.072083,592.512634 365.820251,616.693787 
M256.278290,587.212158 
	C291.105591,617.832031 329.464203,642.802185 372.677032,660.276672 
	C330.086853,619.740662 307.117676,570.360107 305.821350,511.768219 
	C304.528137,453.314331 325.571167,403.160858 367.624695,360.527679 
	C360.789703,360.125061 356.599609,362.388000 352.566895,364.375916 
	C322.142914,379.372986 293.470703,396.988129 267.553864,419.149353 
	C240.071518,442.649353 215.339142,468.616791 193.105148,497.057648 
	C185.428726,506.877075 185.035919,510.080750 190.951630,517.514160 
	C210.696655,542.324707 231.449081,566.191345 256.278290,587.212158 
M719.348083,502.516083 
	C720.078857,525.467102 717.461182,547.926636 710.385315,569.885864 
	C700.248413,601.344849 684.451172,629.294189 660.669128,652.496155 
	C659.682434,653.458801 658.015137,654.182434 658.891235,656.401489 
	C662.527039,656.808228 665.412964,654.540100 668.428406,653.148315 
	C720.695496,629.024292 766.116272,595.544373 804.643188,552.788208 
	C813.669128,542.771484 822.856079,532.777161 830.738342,521.882263 
	C841.521606,506.977631 841.294739,508.174561 831.057922,494.768036 
	C815.060425,473.817078 796.982117,454.652527 777.888916,436.475464 
	C747.571655,407.613007 712.581848,385.508331 675.718384,366.154846 
	C670.374268,363.349091 664.914734,360.660156 658.349609,360.267883 
	C676.900696,379.431549 691.811951,400.916229 702.516663,425.109131 
	C713.259155,449.387390 718.779419,474.941711 719.348083,502.516083 
z"/>
<path fill="#000000" opacity="1.000000" stroke="none" 
	d="
M524.302490,248.999878 
	C524.260071,257.809570 524.445801,266.115173 523.393066,274.403564 
	C522.725647,279.658173 518.922791,284.065552 514.015198,284.513519 
	C508.016479,285.061127 503.798798,281.914795 502.595795,275.848541 
	C502.144714,273.573761 501.716400,271.244507 501.710907,268.939056 
	C501.653168,244.796722 501.638397,220.654022 501.714661,196.511749 
	C501.740021,188.485474 505.897491,183.712616 512.531921,183.644028 
	C518.673035,183.580536 522.692078,187.515259 523.382996,193.616531 
	C524.830505,206.399567 524.109985,219.215134 524.288391,232.016525 
	C524.364929,237.509979 524.302002,243.005402 524.302490,248.999878 
z"/>
<path fill="#000000" opacity="1.000000" stroke="none" 
	d="
M522.369812,826.848267 
	C518.376038,832.498108 515.072876,833.917297 510.051422,832.458191 
	C504.661194,830.892029 501.880951,827.391846 501.778900,820.864197 
	C501.570831,807.556824 501.666260,794.244568 501.655212,780.934326 
	C501.646515,770.452271 501.606659,759.969666 501.711945,749.488586 
	C501.740112,746.681702 502.048126,743.840881 502.579559,741.083435 
	C503.664612,735.453857 508.311951,731.600769 513.331482,731.887329 
	C519.095398,732.216309 522.848267,736.610352 523.379456,742.917236 
	C525.253540,765.168884 523.877869,787.453613 524.254883,809.718628 
	C524.350647,815.372559 523.936584,820.973633 522.369812,826.848267 
z"/>
<path fill="#000000" opacity="1.000000" stroke="none" 
	d="
M794.919434,649.055847 
	C811.826721,664.875244 827.670227,681.261597 843.710388,697.449402 
	C847.049500,700.819214 849.042786,704.545288 847.500244,709.548645 
	C845.104126,717.320618 836.233582,720.156250 829.875916,715.014343 
	C828.587219,713.972107 827.443054,712.747131 826.261658,711.576782 
	C809.713074,695.183350 793.144165,678.810242 776.642273,662.369934 
	C772.341431,658.085144 771.505493,653.172485 773.895508,648.313477 
	C775.808594,644.423889 780.945557,642.037537 785.768921,642.727478 
	C789.750244,643.297058 791.902710,646.484863 794.919434,649.055847 
z"/>
<path fill="#000000" opacity="1.000000" stroke="none" 
	d="
M772.729553,360.413879 
	C773.226257,357.355225 775.084534,355.647552 776.846252,353.882690 
	C793.999146,336.699524 811.149475,319.513672 828.315552,302.343689 
	C833.122192,297.536011 840.399719,297.125000 844.859558,301.349884 
	C849.372620,305.625214 849.429443,312.760468 844.381653,317.860474 
	C829.758179,332.635376 814.922485,347.200165 800.179626,361.856964 
	C797.938904,364.084595 795.704346,366.321442 793.544495,368.626678 
	C789.247681,373.212799 783.872681,374.846405 778.776367,372.761719 
	C773.415955,370.569061 772.427429,365.984131 772.729553,360.413879 
z"/>
<path fill="#000000" opacity="1.000000" stroke="none" 
	d="
M178.638916,305.099670 
	C183.528473,297.026855 191.069672,296.094666 197.446457,302.480927 
	C214.142853,319.202148 230.802597,335.959961 247.496643,352.683563 
	C250.258820,355.450592 252.487244,358.277252 252.431259,362.594055 
	C252.373871,367.018036 251.115753,370.604370 246.938614,372.332031 
	C242.606903,374.123627 238.071945,374.421112 234.369110,370.834045 
	C228.155594,364.814819 222.116608,358.615448 216.002487,352.493591 
	C204.712982,341.189758 193.428497,329.880951 182.128494,318.587677 
	C178.429947,314.891327 176.780563,310.659607 178.638916,305.099670 
z"/>
<path fill="#000000" opacity="1.000000" stroke="none" 
	d="
M193.340317,686.334717 
	C206.650711,673.031433 219.722656,659.982056 232.771408,646.909485 
	C237.095535,642.577393 241.746704,641.386475 246.216003,643.571716 
	C250.793884,645.810120 252.825500,650.162109 252.361725,656.127380 
	C252.190277,658.332397 251.095184,659.859863 249.673203,661.285767 
	C232.160950,678.845886 214.682266,696.439880 197.088501,713.917969 
	C192.258972,718.715820 185.197937,718.722046 181.012787,714.342163 
	C176.468094,709.585999 176.658478,703.472656 181.578674,698.354431 
	C185.382965,694.397034 189.252365,690.502197 193.340317,686.334717 
z"/>
<path fill="#000000" opacity="1.000000" stroke="none" 
	d="
M702.333618,239.823517 
	C692.839355,260.633484 683.482056,281.056305 674.132507,301.482666 
	C672.197937,305.709106 669.786255,309.540436 664.723206,310.249023 
	C660.763672,310.803131 657.066833,309.967407 654.400024,306.604889 
	C651.307617,302.705536 650.846619,298.450562 652.903381,293.950653 
	C658.508423,281.687225 664.131714,269.432129 669.772400,257.185059 
	C673.950623,248.113251 678.038574,238.996460 682.410522,230.018433 
	C685.546753,223.577820 693.023499,221.532593 698.914856,225.160873 
	C703.180603,227.788010 704.367798,232.551102 702.333618,239.823517 
z"/>
<path fill="#000000" opacity="1.000000" stroke="none" 
	d="
M350.059570,296.825134 
	C341.387695,278.423492 332.880219,260.360535 324.372101,242.297867 
	C324.230255,241.996750 324.068604,241.704483 323.937164,241.399063 
	C320.598877,233.641663 322.164124,227.218597 328.032806,224.580917 
	C334.941254,221.475906 340.506317,224.062241 344.316620,232.179138 
	C353.649170,252.059540 362.967163,271.946808 372.302612,291.825836 
	C373.438019,294.243591 374.489319,296.616486 374.356476,299.428162 
	C374.111786,304.607300 371.478302,308.585449 366.711395,309.968536 
	C361.908020,311.362152 357.874207,309.828003 354.674316,306.054443 
	C352.472290,303.457611 351.680908,300.141083 350.059570,296.825134 
z"/>
<path fill="#000000" opacity="1.000000" stroke="none" 
	d="
M331.250793,760.332092 
	C338.397980,744.888000 345.350952,729.767639 352.353149,714.670166 
	C354.921844,709.131836 359.436493,706.358398 364.504486,707.038025 
	C372.409454,708.098083 376.465057,715.344482 373.010193,723.124878 
	C367.406342,735.744995 361.407654,748.189697 355.587433,760.713867 
	C351.660706,769.163391 347.793671,777.640930 343.820770,786.068604 
	C342.050049,789.824890 339.538971,792.840271 335.027710,793.334229 
	C325.483734,794.379272 319.772156,787.001221 323.360931,777.987183 
	C325.697174,772.119324 328.488617,766.432678 331.250793,760.332092 
z"/>
<path fill="#000000" opacity="1.000000" stroke="none" 
	d="
M674.393799,769.503174 
	C667.105469,753.926941 659.982666,738.688843 652.879395,723.441528 
	C650.695496,718.753784 651.102417,714.151550 654.555420,710.396912 
	C657.729309,706.945740 661.999756,706.381042 666.542114,707.635803 
	C669.395386,708.423950 671.056885,710.399658 672.211914,712.869507 
	C682.229126,734.289856 692.308960,755.682068 702.132568,777.191162 
	C705.205139,783.918640 703.093933,790.087891 697.612183,792.653320 
	C691.443176,795.540527 685.303772,793.070129 682.017395,786.201660 
	C679.431091,780.796204 677.042969,775.295898 674.393799,769.503174 
z"/>
<path fill="#000000" opacity="1.000000" stroke="none" 
	d="
M459.549255,356.354614 
	C480.775208,348.781128 502.368683,346.211823 524.301025,347.845856 
	C559.325867,350.455292 590.583496,362.951691 617.643738,385.533905 
	C648.198120,411.032013 666.720825,443.352081 672.426819,482.823212 
	C681.058533,542.532837 661.664490,592.053223 616.804443,631.536377 
	C592.650513,652.795105 563.767090,664.101929 531.707703,667.490845 
	C496.429535,671.220093 463.069305,665.584961 432.082886,647.903259 
	C390.437042,624.138794 364.770508,588.274353 354.921051,541.769714 
	C343.910156,489.781372 356.462036,442.938263 390.722137,402.482788 
	C409.018188,380.878174 432.117035,365.509796 459.549255,356.354614 
M540.327576,621.674377 
	C545.508972,622.160400 550.690430,622.646484 556.581787,623.199158 
	C551.582886,628.497314 545.433960,630.681580 539.902283,634.195190 
	C547.918640,638.117859 587.617798,618.780457 590.453186,610.083862 
	C587.567505,607.891418 584.300903,609.213013 581.374268,609.573425 
	C545.772583,613.957458 514.703552,604.151855 488.936859,579.244995 
	C460.980072,552.221130 450.926819,518.836975 455.506165,480.532867 
	C459.227051,449.409149 473.471039,424.106934 497.063507,403.889069 
	C506.502960,395.799835 517.094299,389.552277 529.136108,386.024292 
	C531.113892,385.444824 533.908875,385.717865 533.762878,382.596893 
	C533.626221,379.674347 531.020996,379.584259 528.930847,379.282074 
	C515.810974,377.385498 502.775055,378.206085 489.710388,380.193512 
	C430.629547,389.181152 384.048096,440.918213 381.484161,504.756226 
	C380.702118,524.228210 384.727081,543.138855 392.411072,561.118469 
	C395.508484,568.366150 398.873901,575.538696 404.299316,581.531311 
	C403.589081,574.246887 400.907288,567.341736 400.988586,559.974060 
	C410.042725,569.917480 417.902222,580.643311 428.254913,589.127930 
	C430.819427,586.530212 430.634338,583.240906 432.061401,580.630432 
	C434.079712,576.938354 436.919891,574.593994 441.255371,575.106995 
	C449.356201,576.065552 460.787231,590.319031 460.283203,598.560547 
	C460.147430,600.780640 459.263763,602.487671 457.020111,603.024597 
	C454.920654,603.526978 454.079132,601.924805 453.385162,600.354797 
	C451.736023,596.624084 448.940338,594.153503 445.105072,592.893494 
	C441.531403,591.719421 439.536407,593.275879 439.913849,597.014587 
	C440.113586,598.993225 440.787506,600.836975 441.970734,602.559814 
	C445.232758,607.309326 449.340576,611.148804 454.104034,614.302551 
	C474.000732,627.475586 496.184479,630.930176 519.484619,629.637085 
	C521.367004,629.532593 522.757446,628.813232 523.264343,626.985046 
	C524.426819,622.792603 527.742249,621.940918 531.378662,621.714905 
	C534.035156,621.549744 536.709106,621.666016 540.327576,621.674377 
M579.582092,454.364838 
	C581.722961,446.409088 589.735718,445.258545 596.170898,440.405823 
	C582.353577,437.805389 578.223572,427.562378 575.450256,416.002380 
	C572.284912,421.609985 572.063721,427.690491 568.206665,432.314606 
	C564.291687,437.008270 558.010315,437.705688 552.516296,441.770660 
	C569.738647,443.137329 571.919189,456.262848 574.528687,469.036835 
	C574.959656,468.794983 575.390625,468.553101 575.821594,468.311249 
	C576.987671,463.908630 578.153748,459.506012 579.582092,454.364838 
M595.650757,561.393127 
	C596.904358,554.527832 603.158386,552.682312 609.927612,548.462219 
	C599.160767,545.488098 595.396912,537.914368 593.115051,529.011841 
	C589.820984,533.297729 589.682312,538.243225 586.693237,541.885986 
	C583.715759,545.514771 578.634949,545.952332 574.750793,549.327332 
	C578.805054,551.481873 582.682861,552.211914 585.485718,554.887451 
	C588.394165,557.663818 589.333862,561.400940 590.352661,565.075012 
	C590.703613,566.340515 591.355103,567.276001 592.634888,567.345642 
	C594.116699,567.426270 594.448242,566.227600 594.684387,565.010315 
	C594.872864,564.038452 595.209717,563.095276 595.650757,561.393127 
M500.596252,498.208405 
	C499.227936,499.867432 496.935516,501.867249 498.380554,503.810059 
	C501.185181,507.580658 503.308167,511.817169 506.127747,516.012634 
	C509.998169,512.468872 510.685547,507.124207 515.468018,505.190002 
	C519.649536,503.498840 518.148682,501.227600 515.403076,499.569031 
	C513.071777,498.160645 511.057312,496.607697 509.643066,494.233551 
	C508.120789,491.678070 506.194580,491.996490 504.344513,493.893127 
	C503.186157,495.080627 502.167664,496.404480 500.596252,498.208405 
M537.167908,566.789368 
	C540.041077,565.632568 542.072083,564.098389 538.995483,561.140686 
	C537.591187,559.790649 535.698608,559.710938 533.904358,560.525818 
	C532.727173,561.060364 532.202454,562.154297 532.357117,563.371216 
	C532.651978,565.691589 534.162720,566.751953 537.167908,566.789368 
M509.563477,451.646332 
	C511.935760,453.260437 513.357361,451.655396 514.437988,449.953156 
	C515.299622,448.595886 515.027771,447.000702 513.733459,445.883331 
	C512.776062,445.056793 511.538483,444.927979 510.469391,445.615814 
	C508.330353,446.992126 507.697083,448.840393 509.563477,451.646332 
z"/>
<path fill="#000000" opacity="1.000000" stroke="none" 
	d="
M424.241821,551.417358 
	C423.506775,554.458374 421.956390,555.758179 419.125580,555.511963 
	C416.582642,555.290833 415.968933,553.542236 415.407959,551.520386 
	C414.521423,548.324890 413.553406,545.149353 412.519440,541.998352 
	C411.771576,539.719177 410.377319,537.896179 408.229340,536.704590 
	C405.481354,535.180176 403.816650,535.826843 403.364319,539.051636 
	C402.884186,542.474243 402.385315,545.894287 401.900269,549.276184 
	C400.115082,549.430237 399.869476,548.173218 399.480286,547.105225 
	C396.839386,539.858276 395.371368,532.363525 395.819611,524.669128 
	C396.023041,521.178040 395.778748,516.658264 399.751801,515.110107 
	C404.084595,513.421753 408.589630,514.263794 412.344238,517.511597 
	C415.142181,519.931824 417.474487,522.699646 419.180878,525.990295 
	C423.251495,533.840088 425.117462,542.138367 424.241821,551.417358 
z"/>
<path fill="#000000" opacity="1.000000" stroke="none" 
	d="
M439.259399,448.409760 
	C434.595001,455.315613 427.806091,458.192322 422.736053,455.704620 
	C417.947998,453.355286 415.555298,445.267639 418.037170,438.323730 
	C421.080383,429.809204 426.483704,422.770782 433.715393,417.491394 
	C441.248413,411.992096 452.070435,415.654053 454.542816,423.981750 
	C455.221985,426.269348 455.336884,428.219757 452.880615,429.299652 
	C451.783905,429.231232 451.319641,428.567413 450.732239,427.962006 
	C446.137970,423.227020 440.410645,423.078552 435.889923,427.802734 
	C432.182373,431.677124 430.467224,436.557831 430.367371,441.857513 
	C430.285065,446.223511 432.153229,447.465485 436.357849,445.738922 
	C439.274841,444.541107 439.577667,445.731415 439.259399,448.409760 
z"/>
<path fill="#000000" opacity="1.000000" stroke="none" 
	d="
M418.239624,477.800354 
	C417.675751,481.077209 415.773438,482.535431 413.038544,482.783997 
	C410.954865,482.973358 409.063782,482.250916 407.951569,480.295349 
	C406.723816,478.136658 406.347626,475.934021 407.915710,473.730194 
	C409.378632,471.674225 411.496460,471.403717 413.712799,471.755005 
	C416.847198,472.251831 418.144531,474.383087 418.239624,477.800354 
z"/>
<path fill="#000000" opacity="1.000000" stroke="none" 
	d="
M474.398987,411.844177 
	C472.532867,412.050964 471.039154,412.275940 469.596375,412.094879 
	C467.871613,411.878418 466.516449,410.874786 466.008698,409.110565 
	C465.441864,407.141266 466.234558,405.560059 467.694916,404.272614 
	C470.367340,401.916656 476.057190,401.962189 477.547455,404.560883 
	C479.438232,407.857941 477.988892,410.185516 474.398987,411.844177 
z"/>
<path fill="#000000" opacity="1.000000" stroke="none" 
	d="
M427.014465,512.794434 
	C426.921265,510.226715 427.825165,508.514526 429.720978,507.476807 
	C432.205139,506.117035 434.659729,506.429932 436.468933,508.568817 
	C438.245026,510.668579 438.466980,513.196350 436.534515,515.364441 
	C434.698608,517.424255 432.321594,517.908569 429.777222,516.612671 
	C428.379456,515.900696 427.549286,514.669556 427.014465,512.794434 
z"/>
<path fill="#000000" opacity="1.000000" stroke="none" 
	d="
M393.904114,497.787628 
	C392.636444,497.432861 391.486816,497.237122 390.943970,496.557037 
	C389.210236,494.385040 389.010742,491.968048 391.017883,489.847992 
	C392.453552,488.331482 394.372467,488.204926 395.912628,489.618683 
	C397.880768,491.425323 397.801453,493.776093 396.592194,495.964905 
	C396.165161,496.737823 395.082977,497.148743 393.904114,497.787628 
z"/>
<path fill="#000000" opacity="1.000000" stroke="none" 
	d="
M440.132172,558.720581 
	C439.781525,555.750061 440.857330,554.208008 443.521637,554.055054 
	C445.404053,553.947021 447.213287,554.235962 447.929413,556.331421 
	C448.461609,557.888550 447.977966,559.411499 446.643372,560.244873 
	C444.285889,561.716980 442.000366,561.598816 440.132172,558.720581 
z"/>
<path fill="#000000" opacity="1.000000" stroke="none" 
	d="
M469.404022,612.652344 
	C469.353638,609.470154 471.099915,608.625977 473.550659,608.732544 
	C474.970947,608.794250 476.151917,609.410217 476.372498,610.962097 
	C476.608521,612.622986 475.747040,613.778503 474.328186,614.563721 
	C472.176208,615.754761 470.562897,615.274597 469.404022,612.652344 
z"/>
</svg>