<svg version="1.1" id="Layer_1" xmlns="http://www.w3.org/2000/svg" xmlns:xlink="http://www.w3.org/1999/xlink" x="0px" y="0px"
	 width="100%" viewBox="0 0 1024 1024" enable-background="new 0 0 1024 1024" xml:space="preserve">
<path fill="#000000" opacity="1.000000" stroke="none" 
	d="
M584.870483,431.937561 
	C516.949646,477.616211 446.208771,517.334961 370.387299,547.575012 
	C336.678680,561.019043 302.410706,572.813232 266.705780,579.873169 
	C244.941452,584.176636 223.034851,587.063232 200.794296,584.277405 
	C194.204895,583.452026 187.682587,582.192017 181.515228,579.504700 
	C162.075409,571.034119 156.004059,554.570618 159.272583,535.785461 
	C162.953644,514.629395 174.962646,497.500275 187.904724,481.042908 
	C191.915359,475.942841 196.134750,470.964935 200.677689,466.343048 
	C202.968597,464.012360 203.121246,462.197723 202.007782,459.357239 
	C196.410965,445.079773 192.272476,430.356842 189.715088,415.241455 
	C186.010834,393.347443 185.221222,371.385590 187.492096,349.208679 
	C190.603149,318.826447 199.071899,290.131226 213.866882,263.530029 
	C248.476532,201.302338 300.597626,161.850555 370.023224,145.755280 
	C395.445374,139.861526 421.199768,138.502640 447.281616,141.421082 
	C487.246826,145.893021 524.012207,158.841171 557.405518,181.187057 
	C581.904053,197.580765 602.519470,218.033249 619.216675,242.316422 
	C621.584717,245.760284 623.808105,246.146622 627.426392,245.339157 
	C647.234253,240.918808 667.141541,237.135162 687.586182,237.673523 
	C693.933777,237.840683 700.183594,238.824493 706.214294,240.756210 
	C727.386719,247.538055 733.601013,263.777649 729.607788,283.035339 
	C726.424500,298.387177 717.817383,311.196014 708.568542,323.482300 
	C682.426758,358.209198 649.502258,385.721802 614.650574,411.124268 
	C604.962463,418.185699 594.998596,424.868774 584.870483,431.937561 
M371.867676,230.485657 
	C337.320374,241.801666 309.993713,262.893829 290.150970,293.064240 
	C268.721619,325.647125 263.082001,361.969818 268.238678,400.162659 
	C272.690796,433.136780 287.081879,461.303192 310.710724,484.671082 
	C318.089569,491.968475 325.913696,498.827423 335.709381,502.975555 
	C326.459930,492.961029 317.442444,482.880219 313.480927,469.228973 
	C330.796448,484.515869 349.189362,497.900024 371.162506,506.244507 
	C373.173431,501.362518 376.447296,497.752960 381.322174,498.063507 
	C389.147491,498.561981 396.653656,501.141815 400.800537,508.419952 
	C403.233124,512.689331 405.467896,513.116882 409.576569,511.198120 
	C429.510803,501.888763 448.847107,491.407318 468.432098,481.415070 
	C469.978271,480.626190 471.840820,479.955383 472.492340,477.466064 
	C407.200012,470.957642 361.559143,438.413147 346.328247,373.491150 
	C331.049377,308.364594 354.453949,258.031006 414.588684,226.197250 
	C412.800171,222.160309 409.168396,223.127548 406.313538,223.515900 
	C394.959198,225.060486 383.611633,226.766449 371.867676,230.485657 
M257.021301,253.485077 
	C254.914825,256.483643 252.719315,259.423950 250.715240,262.489471 
	C219.860245,309.685913 210.475082,361.221436 221.335236,416.173035 
	C232.322845,471.769623 262.584625,515.061462 308.808075,547.444092 
	C310.128113,548.368896 311.372681,549.705872 313.289062,549.062805 
	C320.620270,546.603210 328.071075,544.454102 335.416992,541.017151 
	C246.409332,491.024628 222.079575,390.657532 246.615646,317.258636 
	C271.656036,242.351044 337.426239,197.239502 410.604095,192.822037 
	C455.045868,190.139267 496.472809,200.898239 532.706360,227.118179 
	C588.014954,267.141479 611.068115,322.976685 608.433533,391.370667 
	C615.328796,387.812836 619.941711,383.504303 625.129456,380.078888 
	C627.816284,378.304810 628.774170,376.217438 628.760376,373.046478 
	C628.711792,361.877777 627.672363,350.824219 625.739807,339.832825 
	C616.648438,288.123810 590.970642,246.396255 549.581299,214.403915 
	C518.523682,190.397614 483.151428,177.005096 444.086395,173.239929 
	C421.237549,171.037735 398.559662,171.761139 376.137421,176.933899 
	C327.550262,188.142868 287.940277,213.429031 257.021301,253.485077 
M666.846191,344.338287 
	C676.105530,335.212311 685.110168,325.828003 692.997498,315.488373 
	C701.275940,304.636230 709.506897,293.684387 713.013733,280.091675 
	C716.073181,268.233063 711.677612,260.073730 699.944641,256.665680 
	C693.372620,254.756729 686.541809,253.966507 679.700500,254.510757 
	C666.122070,255.590958 652.635376,257.392731 639.308167,260.305450 
	C631.727600,261.962250 631.567932,262.248810 634.983887,269.347717 
	C645.930542,292.096924 653.796936,315.800568 657.598083,340.840729 
	C658.048828,343.810028 657.053101,347.568878 660.064758,350.023010 
	C660.713501,349.698059 661.227783,349.560608 661.580200,349.243347 
	C663.188965,347.795166 664.752258,346.296509 666.846191,344.338287 
M257.525940,545.978394 
	C237.991989,527.471130 223.337799,505.355621 210.644333,481.143188 
	C203.556732,487.379303 198.632568,494.265076 193.766144,501.148560 
	C186.061752,512.046448 178.712845,523.168945 175.846176,536.534729 
	C172.786179,550.802002 178.361832,560.906677 191.729553,564.939087 
	C197.137772,566.570557 202.711777,567.463074 208.395035,567.669067 
	C223.577606,568.219482 238.666672,567.258789 253.587219,564.479675 
	C259.762207,563.329468 266.183777,562.772095 272.501434,559.779724 
	C267.326691,555.021545 262.679565,550.748474 257.525940,545.978394 
M460.499908,385.631226 
	C465.491272,385.632172 470.482605,385.634216 475.473969,385.633820 
	C493.775543,385.632416 512.077209,385.665100 530.378601,385.607666 
	C536.098816,385.589691 537.756592,383.850464 537.863342,378.125336 
	C537.928467,374.632629 537.953613,371.135864 537.863892,367.644379 
	C537.727783,362.351868 535.826233,360.470703 530.573242,360.385529 
	C526.747620,360.323456 522.920044,360.383850 519.093384,360.383972 
	C492.140137,360.384796 465.186890,360.366577 438.233704,360.397797 
	C432.347290,360.404633 430.454498,362.312439 430.354553,368.114594 
	C430.297272,371.441132 430.297424,374.770447 430.359100,378.096863 
	C430.457092,383.379578 432.625275,385.556030 438.037354,385.615936 
	C445.190704,385.695190 452.345642,385.632355 460.499908,385.631226 
M475.657135,266.967133 
	C472.911713,272.399109 468.003204,275.317047 462.300049,277.901581 
	C471.056030,281.381866 476.378937,287.471375 479.305756,296.376556 
	C481.632507,287.161255 487.473297,281.725647 496.755066,277.738647 
	C487.337433,274.267365 482.534485,268.433899 479.872009,260.777893 
	C476.881531,262.038452 477.037750,264.557617 475.657135,266.967133 
M392.847046,358.714111 
	C395.117554,362.042603 396.675903,360.039948 398.614105,358.169647 
	C401.626343,355.263000 400.974304,352.961212 398.303009,350.257507 
	C396.222412,348.151672 394.489777,347.777832 392.612701,350.161896 
	C391.438385,351.653412 389.198486,352.310120 388.972931,355.335602 
	C389.896027,356.109436 391.148468,357.159332 392.847046,358.714111 
M495.499023,445.883667 
	C496.636536,444.075684 499.121033,443.567108 500.057495,441.092346 
	C498.749207,439.930054 497.431915,438.714905 496.065399,437.557983 
	C494.625732,436.339111 493.382629,434.234833 491.086151,436.269653 
	C488.732025,438.355652 487.534698,440.861664 489.534119,443.660217 
	C490.758392,445.373901 491.567322,448.884216 495.499023,445.883667 
M408.073059,288.959930 
	C407.053253,286.567963 405.336090,285.680847 402.986664,286.962280 
	C401.911072,287.548920 401.345306,288.953094 402.192566,289.957245 
	C403.647278,291.681335 405.522034,290.711609 407.226837,290.156982 
	C407.504730,290.066620 407.698425,289.717346 408.073059,288.959930 
z"/>
<path fill="#000000" opacity="1.000000" stroke="none" 
	d="
M652.333252,714.568604 
	C642.866516,695.681702 631.322998,678.618652 617.998291,662.730103 
	C616.456116,660.891174 614.781799,659.729797 612.315308,659.099487 
	C601.874878,656.431274 596.552795,648.677429 597.854980,637.875427 
	C598.184509,635.141357 597.622131,633.075745 596.324158,630.877014 
	C588.249573,617.198914 578.000000,605.519531 564.774841,596.606995 
	C551.150085,587.425171 536.763367,585.948120 521.679443,592.699158 
	C496.554138,603.944275 470.354584,610.549316 442.814880,612.525452 
	C395.853363,615.895203 352.011780,605.589294 310.523163,583.990723 
	C308.193542,582.777954 305.896149,581.503235 303.203766,580.052612 
	C304.482697,578.297974 306.059601,578.048218 307.583496,577.567810 
	C318.685303,574.068237 329.788025,570.568909 340.842438,566.923889 
	C343.361176,566.093445 345.494781,566.151062 347.991455,567.185486 
	C373.361877,577.697266 399.923187,583.160645 427.270447,582.477966 
	C488.370697,580.952820 538.993347,556.463745 578.883118,510.209167 
	C602.273865,483.086273 617.595276,451.829010 624.890686,416.695923 
	C625.357727,414.446594 625.994934,412.262482 628.093445,410.701447 
	C638.398193,403.035980 648.007874,394.555573 657.155701,385.544983 
	C657.710144,384.998840 658.481628,384.673035 660.036926,383.679565 
	C659.716248,388.960907 659.647766,393.467590 659.140076,397.924225 
	C654.343323,440.037628 640.354736,478.756744 615.805176,513.429565 
	C604.226807,529.782410 604.822205,546.899597 611.372253,564.689636 
	C615.370972,575.550171 620.668335,585.694824 627.833191,594.811096 
	C632.079163,600.213440 637.167480,603.915588 644.414917,604.752014 
	C652.994141,605.742188 659.298950,612.404541 658.065308,620.876465 
	C656.626953,630.753723 661.119873,637.303101 666.737976,644.029358 
	C684.893066,665.765320 706.387756,683.916077 728.259521,701.682129 
	C745.063904,715.332031 762.321838,728.474121 777.437866,744.070312 
	C790.317261,757.358887 801.006653,772.066833 806.490234,790.077698 
	C810.049316,801.767517 810.822998,813.604858 808.096802,825.474487 
	C807.226318,829.264648 808.012512,831.645691 811.047485,833.449646 
	C817.506714,837.289001 820.872131,842.742310 820.291931,850.372986 
	C820.123596,852.587158 821.768311,853.557129 823.103394,854.781006 
	C830.166809,861.256470 832.290894,869.036621 829.280518,877.337402 
	C826.296021,885.566772 817.341797,891.826416 807.971008,892.234375 
	C799.758240,892.591919 792.124268,887.602173 788.533020,879.225464 
	C787.525146,876.874512 786.278198,875.785645 783.682312,875.046692 
	C777.081848,873.167786 772.936401,868.512817 771.716431,861.672119 
	C771.115356,858.301697 770.066833,856.251221 766.045532,856.350952 
	C745.888123,856.851135 729.871094,847.640320 715.867126,834.213989 
	C703.168152,822.038635 694.455505,807.079590 687.076172,791.312622 
	C676.210510,768.096680 667.560303,743.890259 655.767212,721.085327 
	C654.696106,719.013977 653.605591,716.952637 652.333252,714.568604 
M655.131470,669.366089 
	C670.788757,684.844727 687.894409,698.681519 704.678040,712.872742 
	C722.867615,728.252686 741.395691,743.251892 757.888184,760.505798 
	C769.156433,772.294067 778.726379,785.187500 782.549133,801.508301 
	C786.733948,819.374512 778.399292,830.941467 760.582520,831.918152 
	C769.768433,837.570129 783.406982,834.584595 789.716797,823.468689 
	C793.841919,816.201599 793.968933,808.612305 792.121094,800.782349 
	C788.047913,783.522461 778.134033,769.625244 766.378540,756.916016 
	C748.895569,738.014587 728.313171,722.610596 708.654053,706.152832 
	C687.239319,688.225159 664.232117,671.984314 647.074646,649.419556 
	C645.734680,647.657288 644.031677,646.675476 641.894226,647.949097 
	C639.400208,649.435120 640.528320,651.389343 641.574768,653.117004 
	C645.142578,659.007568 650.075317,663.779907 655.131470,669.366089 
M753.177612,794.313965 
	C747.892456,803.335327 739.246399,804.871948 730.363464,798.390991 
	C721.584534,791.985901 717.283875,782.658142 713.759644,772.858948 
	C709.701965,761.576721 708.179810,749.613831 704.611755,738.199951 
	C702.274109,730.722046 699.052795,723.715576 692.259583,717.287537 
	C694.212952,723.372864 695.885864,728.199158 697.309753,733.097839 
	C700.657410,744.614929 700.741089,756.693787 703.304626,768.365479 
	C706.570374,783.234863 712.234375,796.651855 725.016418,805.886841 
	C733.210022,811.806885 742.160156,814.376526 751.603638,808.987488 
	C760.710266,803.790771 765.558350,795.967590 764.695435,785.086670 
	C763.829712,774.168335 753.228088,764.493591 742.844666,765.400818 
	C738.551880,765.775879 735.071594,767.594177 733.779297,771.991089 
	C732.730896,775.557922 733.256714,778.856995 736.830383,781.297974 
	C737.390564,780.799988 737.948975,780.442322 738.325867,779.946594 
	C741.200562,776.165222 745.264709,775.973633 749.193359,777.031555 
	C753.071472,778.075806 753.978699,781.703735 754.492737,785.314636 
	C754.902100,788.190430 754.589172,790.932617 753.177612,794.313965 
M578.593689,573.856323 
	C584.693726,579.569946 590.793762,585.283508 596.893799,590.997131 
	C594.764587,584.103516 591.714722,577.920410 588.613770,571.763000 
	C585.371399,565.324951 584.414001,558.360474 584.360291,550.621582 
	C577.816406,555.642456 571.965942,560.131287 565.752563,564.898560 
	C570.480530,567.521667 574.326538,570.375977 578.593689,573.856323 
M618.351746,637.561340 
	C628.617859,636.832703 635.468994,630.173340 642.320862,623.611755 
	C643.675232,622.314758 644.255859,620.341553 642.775940,618.629333 
	C641.151428,616.749756 639.133728,617.181885 637.344727,618.338379 
	C630.329895,622.873230 623.866699,628.096191 618.161987,634.217163 
	C617.319824,635.120850 615.934631,636.104126 618.351746,637.561340 
M792.243164,848.766846 
	C790.049255,850.276917 787.234436,851.768677 789.001953,854.982971 
	C790.817261,858.284119 794.022705,858.532349 797.250183,857.096619 
	C800.337524,855.723145 802.800293,853.487427 804.773193,850.750183 
	C805.969055,849.091064 806.976624,847.397766 805.381287,845.351929 
	C803.755493,843.267273 801.851807,843.083374 799.687256,844.321899 
	C797.388367,845.637146 795.118408,847.002930 792.243164,848.766846 
z"/>
<path fill="#000000" opacity="1.000000" stroke="none" 
	d="
M402.075378,543.930237 
	C430.375519,532.020874 457.589081,518.776855 484.359955,504.518219 
	C493.796906,499.491943 504.921143,498.585205 515.548767,496.177032 
	C511.575348,503.293060 505.046051,507.733734 499.227631,512.964539 
	C505.870178,512.011902 510.870422,507.881775 515.995728,504.284851 
	C531.445984,493.441803 544.188293,479.957153 554.002502,463.781555 
	C555.224426,461.767548 556.518066,459.897095 558.601624,458.637329 
	C571.716309,450.708038 584.343140,442.044586 596.826111,433.165405 
	C597.330688,432.806519 597.956665,432.618225 599.020203,432.784271 
	C586.093567,473.284180 562.357178,505.890137 527.346191,530.094604 
	C475.905060,565.657776 417.165161,567.426453 376.985321,554.557007 
	C385.792267,550.828003 393.758118,547.455200 402.075378,543.930237 
z"/>
<path fill="#000000" opacity="1.000000" stroke="none" 
	d="
M333.007812,458.945007 
	C335.644073,465.443756 339.377045,470.663361 344.675415,474.685608 
	C350.251068,478.918457 356.181519,481.406403 363.191376,478.176880 
	C363.940674,477.831665 364.788666,477.686249 365.795593,478.525726 
	C365.057617,483.277893 361.183533,483.970398 357.479492,484.287476 
	C346.259216,485.247955 337.451202,480.028381 330.125275,472.306915 
	C322.229309,463.984741 316.107758,454.585663 315.633270,442.505157 
	C315.052795,427.725159 324.760345,421.009033 339.306305,424.261566 
	C354.364838,427.628693 367.378174,442.967438 369.109680,458.308044 
	C369.293091,459.933014 369.465546,461.625397 367.399506,462.970337 
	C364.106598,458.563812 361.092194,453.997284 356.989563,450.356842 
	C353.339142,447.117737 349.461029,444.383392 344.587585,443.269318 
	C335.296051,441.145355 329.531830,447.094299 332.122711,456.208099 
	C332.349792,457.006805 332.607025,457.796997 333.007812,458.945007 
z"/>
<path fill="#000000" opacity="1.000000" stroke="none" 
	d="
M286.778809,378.402008 
	C295.330872,375.790619 299.980377,377.850586 303.615997,385.554169 
	C307.232605,393.217316 308.848816,401.284943 308.298431,409.746918 
	C307.927979,415.442932 304.890320,418.739929 300.144836,418.782623 
	C299.426208,417.893341 299.610382,416.941223 299.915375,415.956085 
	C301.868195,409.647980 297.822205,402.294250 291.352173,400.074402 
	C288.927124,399.242371 288.439880,400.792725 287.866333,402.396179 
	C286.590424,405.963104 287.842163,409.245636 288.986938,412.569977 
	C289.406097,413.787201 289.781921,415.300507 288.233063,416.092590 
	C287.026093,416.709839 286.041504,415.954437 285.117645,415.148438 
	C276.314545,407.468140 277.099945,385.620453 286.778809,378.402008 
z"/>
<path fill="#000000" opacity="1.000000" stroke="none" 
	d="
M319.959167,293.959839 
	C313.326569,300.653107 309.691345,308.100708 310.236938,317.478943 
	C310.535767,322.615784 313.297729,326.423553 315.963501,330.337555 
	C311.057312,333.730042 302.964996,331.234344 299.198151,325.420227 
	C295.871246,320.285095 295.879700,314.509888 297.146149,308.998016 
	C300.085541,296.205231 308.390045,287.772339 320.287323,282.700256 
	C321.492004,282.186676 322.833313,281.805145 324.130280,281.739563 
	C326.223846,281.633759 328.804474,281.064056 329.738312,283.724091 
	C330.590118,286.150482 328.345734,287.163696 326.827545,288.389709 
	C324.625916,290.167542 322.416870,291.936157 319.959167,293.959839 
z"/>
<path fill="#000000" opacity="1.000000" stroke="none" 
	d="
M296.751404,351.725403 
	C296.002930,355.559418 293.849152,357.191315 290.394470,357.335938 
	C286.247803,357.509491 283.674622,355.465393 282.878204,351.556976 
	C282.225647,348.354523 283.855591,345.799805 286.914124,345.012177 
	C290.586182,344.066589 294.330536,344.206024 296.267853,348.436493 
	C296.667725,349.309723 296.656738,350.371124 296.751404,351.725403 
z"/>
<path fill="#000000" opacity="1.000000" stroke="none" 
	d="
M290.232361,442.631042 
	C289.364868,439.865234 288.747894,437.372589 291.211090,435.545197 
	C293.276459,434.012970 295.383972,434.755615 297.150116,436.114227 
	C299.553864,437.963287 301.614777,440.212830 301.134827,443.578461 
	C300.779877,446.067627 298.833466,446.574554 296.673431,446.413971 
	C294.078094,446.221039 291.918610,445.169250 290.232361,442.631042 
z"/>
<path fill="#000000" opacity="1.000000" stroke="none" 
	d="
M315.716248,369.075073 
	C316.707825,365.018555 319.542633,365.364929 322.107758,365.969666 
	C324.537628,366.542480 324.641663,368.729431 324.307739,370.797028 
	C323.925598,373.163177 322.195129,374.064941 320.057678,374.126007 
	C316.984528,374.213837 315.540100,372.560669 315.716248,369.075073 
z"/>
<path fill="#000000" opacity="1.000000" stroke="none" 
	d="
M346.469025,265.212341 
	C344.185425,267.352875 341.920715,268.165344 339.546936,266.446533 
	C338.178162,265.455444 338.329590,263.725647 338.993988,262.362061 
	C340.057343,260.179565 342.096619,259.449219 344.378967,259.758636 
	C347.704071,260.209381 347.615540,262.407654 346.469025,265.212341 
z"/>
</svg>