<svg version="1.1" id="Layer_1" xmlns="http://www.w3.org/2000/svg" xmlns:xlink="http://www.w3.org/1999/xlink" x="0px" y="0px"
	 width="100%" viewBox="0 0 1024 1024" enable-background="new 0 0 1024 1024" xml:space="preserve">
<path fill="#000000" opacity="1.000000" stroke="none" 
	d="
M176.815796,496.867889 
	C183.799774,486.036041 191.562943,476.250580 200.075912,467.091675 
	C202.400452,464.590790 203.113449,462.671631 201.781357,459.309357 
	C193.710907,438.938934 188.715103,417.723877 186.911179,395.948730 
	C182.589981,343.787262 193.530945,295.001495 221.517807,250.542770 
	C247.145264,209.832123 282.039124,179.476578 326.095734,159.982635 
	C348.119171,150.237854 371.140656,144.134232 395.188354,141.499817 
	C451.754578,135.303024 503.927643,147.901077 552.057678,177.640594 
	C578.594849,194.037903 600.751465,215.314484 618.443420,241.066238 
	C621.093811,244.924118 623.598389,245.981277 628.307678,244.878265 
	C646.942749,240.513580 665.796204,237.471268 685.040771,237.658325 
	C691.398010,237.720123 697.665466,238.538956 703.782654,240.103775 
	C726.152283,245.825974 735.489258,261.953369 729.626404,284.375488 
	C725.793274,299.034821 717.759338,311.463654 708.687988,323.259399 
	C682.736206,357.005463 650.855652,384.578918 616.525513,409.225647 
	C531.741699,470.094910 441.759857,521.579773 343.422485,557.568970 
	C315.121582,567.926453 286.345886,576.705444 256.589386,581.827332 
	C234.848328,585.569458 213.016525,587.375000 191.184814,582.348694 
	C164.282379,576.154846 152.366714,554.327820 161.407333,528.000061 
	C165.161285,517.067932 170.333206,506.847717 176.815796,496.867889 
M306.775482,271.274536 
	C267.657257,315.879242 257.625763,367.047119 273.434937,423.492462 
	C285.076080,465.056030 318.451019,496.253693 334.894531,501.691742 
	C330.681427,496.777710 326.260925,492.023682 322.313080,486.905029 
	C318.304260,481.707184 314.649414,476.207214 313.349915,469.284729 
	C330.792786,484.448730 349.160919,497.880524 371.078827,506.318115 
	C373.343597,500.536652 377.460236,497.575592 383.189392,498.017059 
	C391.389496,498.648834 398.292786,502.376068 402.986694,509.162231 
	C405.066223,512.168701 406.581940,512.637207 409.789825,511.056519 
	C429.665527,501.262878 449.397522,491.198273 468.802979,480.501434 
	C470.169159,479.748352 472.400787,479.376862 472.170532,477.310028 
	C471.904449,474.921661 469.535645,474.963562 467.810211,474.837036 
	C460.006592,474.264740 452.289062,473.221954 444.681122,471.358490 
	C365.175446,451.884491 333.084229,381.355011 344.219482,316.571594 
	C351.116058,276.448395 373.144562,246.677673 410.268280,228.764084 
	C411.978424,227.938858 414.584747,227.382812 413.919983,224.785172 
	C413.330841,222.482971 410.826538,222.448471 408.879639,222.428040 
	C402.031799,222.356186 395.293152,223.559235 388.631958,224.907684 
	C356.580719,231.395981 329.815826,247.365509 306.775482,271.274536 
M219.499710,341.923981 
	C216.265366,366.985504 215.928345,391.999237 221.282639,416.834320 
	C233.013733,471.247223 261.821075,514.320618 307.540466,546.063965 
	C309.154572,547.184631 310.947113,548.997314 312.853119,548.560303 
	C320.208099,546.873352 327.311035,544.377563 334.129486,540.828857 
	C332.720245,538.216980 330.521271,537.549316 328.732483,536.469360 
	C308.819244,524.446960 291.615051,509.316376 277.496735,490.878448 
	C245.043808,448.496277 232.357254,400.762634 239.551041,347.805847 
	C244.253036,313.192261 257.754486,282.107483 280.894196,256.286530 
	C332.937195,198.213150 398.444611,180.067505 472.909149,199.262756 
	C536.214478,215.581436 578.760437,256.721985 599.978882,318.979858 
	C607.140320,339.992371 609.202637,361.795013 608.394348,383.919525 
	C608.316345,386.053955 607.423828,388.620331 610.115784,390.501007 
	C615.661072,387.518890 620.393799,383.324615 625.507751,379.680267 
	C627.962341,377.931061 628.731873,375.790283 628.722412,372.872986 
	C628.686584,361.868164 627.586121,350.977417 625.730225,340.145569 
	C616.890625,288.554230 591.531738,246.678268 550.204163,214.938904 
	C502.728912,178.478180 448.615814,165.950256 389.741516,174.388794 
	C343.851868,180.966217 304.706024,201.490295 272.674103,235.019363 
	C244.167191,264.858673 226.741623,300.414948 219.499710,341.923981 
M266.908661,554.604248 
	C242.907181,534.191711 225.042450,508.973114 210.504532,480.729004 
	C205.051834,485.435333 201.551300,490.315857 198.006912,495.095917 
	C188.875168,507.411133 179.682693,519.766113 175.851151,534.995056 
	C172.099701,549.905579 178.013870,560.887878 191.960541,565.103882 
	C197.204987,566.689270 202.610550,567.643005 208.146561,567.681824 
	C218.631119,567.755432 229.134140,568.088745 239.547821,566.591003 
	C250.647720,564.994568 261.731598,563.243103 272.963654,560.036316 
	C270.874634,558.145752 269.163208,556.596863 266.908661,554.604248 
M651.090759,310.657074 
	C654.682617,322.967072 656.721313,335.628906 658.867798,348.166626 
	C661.061646,348.015778 661.866150,346.849213 662.844971,345.988831 
	C676.648804,333.855438 688.974182,320.352600 699.750427,305.480286 
	C705.312988,297.803375 710.481873,289.866730 713.030212,280.517059 
	C716.300781,268.517883 712.269348,260.543060 700.581543,256.753265 
	C695.991089,255.264816 691.220459,254.514938 686.377380,254.374893 
	C673.695312,254.008224 661.156128,255.586823 648.718018,257.705902 
	C643.135498,258.657013 637.201721,258.840210 631.918762,261.965027 
	C635.460632,269.964813 638.971313,277.654419 642.278503,285.430542 
	C645.663330,293.389404 648.436829,301.576202 651.090759,310.657074 
M415.350311,378.728699 
	C415.350006,379.728394 415.345886,380.728149 415.349976,381.727814 
	C415.382355,389.590210 416.442657,390.649445 424.289673,390.643005 
	C433.786072,390.635193 443.285889,390.767273 452.777283,390.544067 
	C456.751831,390.450592 458.157379,392.045258 458.057770,395.808990 
	C457.784668,406.123444 458.558716,416.454163 457.506805,426.760437 
	C457.089447,430.849396 459.376251,432.996613 463.171722,433.554321 
	C465.130341,433.842133 467.162903,433.655609 469.161591,433.636444 
	C475.898987,433.571869 477.613892,431.833588 477.632812,424.948212 
	C477.659851,415.118744 477.758881,405.287048 477.582245,395.460693 
	C477.515930,391.770721 478.822113,390.508698 482.504395,390.574432 
	C492.830566,390.758728 503.163696,390.535217 513.490845,390.688904 
	C518.116821,390.757721 520.266418,388.581787 520.584534,384.216156 
	C520.705383,382.557465 520.690430,380.886475 520.683655,379.221313 
	C520.657104,372.701233 519.378174,371.242554 512.854858,371.149750 
	C503.193939,371.012299 493.524689,370.910858 483.869232,371.172607 
	C479.184723,371.299591 477.255676,369.902618 477.504547,364.956573 
	C477.872498,357.643707 477.641113,350.300201 477.646942,342.969727 
	C477.657227,330.015015 477.651550,330.015015 464.741425,330.248993 
	C459.162933,330.350098 457.974579,331.498169 457.977753,337.011536 
	C457.983032,346.174255 458.061005,355.336914 458.074615,364.499664 
	C458.083893,370.745331 457.743225,371.098633 451.649017,371.092499 
	C441.986420,371.082764 432.323730,370.983124 422.661316,371.009338 
	C416.690887,371.025513 415.758850,371.972778 415.350311,378.728699 
M480.572876,264.186493 
	C478.400543,261.185181 477.247314,263.364868 476.344269,265.167297 
	C473.861725,270.122314 470.248169,273.767944 465.053772,275.849091 
	C464.060883,276.246887 462.854431,276.793335 462.963318,278.687592 
	C465.938324,280.317261 469.319519,281.689117 471.967407,284.292328 
	C474.727417,287.005768 475.744690,290.833069 478.881317,294.625153 
	C482.046814,286.945343 487.170868,281.650116 495.443115,277.781158 
	C488.466217,274.128021 483.319305,270.798340 480.572876,264.186493 
M556.866516,358.777863 
	C558.604980,361.019867 560.323181,363.648773 563.682739,361.760254 
	C565.400269,360.794739 566.855347,359.082703 566.155396,356.844604 
	C565.526123,354.832855 563.897949,353.370026 561.752075,353.412292 
	C558.846375,353.469543 556.708008,354.823029 556.866516,358.777863 
M400.051422,353.241943 
	C398.615234,350.991791 397.236389,348.324829 393.923920,349.900269 
	C392.011139,350.809967 390.056854,352.350983 390.638000,354.868683 
	C391.110016,356.913574 392.945984,358.551483 394.939362,358.385284 
	C397.439575,358.176819 400.337860,357.532776 400.051422,353.241943 
M404.969666,285.368835 
	C402.540344,285.068634 400.520264,285.710999 400.241577,288.411896 
	C400.041840,290.347382 400.244507,292.650513 402.443054,293.462006 
	C404.614929,294.263611 406.344116,292.628143 407.535461,291.165314 
	C409.607574,288.620972 407.700195,286.987396 404.969666,285.368835 
z"/>
<path fill="#000000" opacity="1.000000" stroke="none" 
	d="
M605.359985,539.730591 
	C606.266296,552.685242 612.595215,563.216125 617.705383,574.193359 
	C618.730957,576.396362 620.570496,576.564148 622.677979,576.687195 
	C634.713623,577.390076 642.121643,584.810669 642.169067,596.915283 
	C642.185791,601.178223 643.810059,604.040466 646.353455,607.068665 
	C673.165039,638.990723 704.157654,666.492065 736.383789,692.723083 
	C750.212036,703.978760 763.757080,715.568176 775.988098,728.610413 
	C790.566772,744.155945 802.132568,761.382202 806.751892,782.586792 
	C808.176208,789.125061 808.650330,795.748108 808.307251,802.414734 
	C808.174438,804.996216 808.995483,806.686768 811.171570,808.252869 
	C816.637390,812.186707 819.583130,817.602234 819.332581,824.484680 
	C819.245850,826.867554 819.764771,828.518860 822.326355,829.498474 
	C839.786560,836.175598 844.888245,855.228882 832.785950,869.421021 
	C825.107666,878.425049 815.315247,883.604675 803.096863,883.382690 
	C791.886230,883.179077 781.850281,874.373352 780.860779,863.007019 
	C780.530457,859.213196 779.451721,857.319153 775.763245,856.502808 
	C770.514771,855.341064 766.769714,851.976562 764.935791,847.022644 
	C763.648987,843.546753 761.590759,842.498291 758.054749,841.963318 
	C736.253235,838.664856 720.611511,825.672363 707.511719,808.970154 
	C693.426697,791.011841 683.750305,770.465637 673.559448,750.255493 
	C658.402344,720.196594 642.974609,690.312561 623.175598,662.940674 
	C616.921448,654.294373 610.242920,645.993652 603.053284,638.101990 
	C601.662659,636.575684 600.280823,635.568359 598.058411,635.272888 
	C585.096985,633.549683 579.028870,625.296204 581.101379,612.121155 
	C581.464478,609.813232 581.006409,608.239807 579.454163,606.779236 
	C569.399109,597.317688 558.737549,588.935059 544.479126,586.804565 
	C539.782593,586.102905 535.358765,586.205261 530.892944,588.395447 
	C507.108612,600.059753 482.110779,608.030151 455.778870,611.088074 
	C402.795959,617.241150 352.790527,607.788147 306.214508,581.384460 
	C305.373627,580.907776 304.331451,580.616638 304.005951,579.220154 
	C307.756866,577.110291 312.055481,576.422729 316.100861,575.075439 
	C324.461182,572.291199 332.905243,569.756531 341.246063,566.917053 
	C343.629150,566.105835 345.578247,566.213074 347.891968,567.200012 
	C374.791412,578.674133 402.979980,583.981323 432.097961,582.510376 
	C486.954895,579.739258 533.539734,558.222534 571.400635,518.374268 
	C598.893311,489.438446 616.743774,455.327026 624.775940,416.156128 
	C625.182007,414.175842 625.902954,412.375854 627.650391,411.077820 
	C637.963867,403.416962 647.619141,394.988159 656.780945,385.986237 
	C657.227600,385.547363 657.883423,385.321381 658.809021,384.782471 
	C660.458008,391.329865 658.914917,397.535522 658.143555,403.625519 
	C654.044495,435.989410 644.512939,466.609955 627.930725,494.864288 
	C622.949463,503.351776 617.514343,511.546783 611.384033,519.244385 
	C606.665100,525.169739 604.791626,531.827148 605.359985,539.730591 
M727.713928,713.806702 
	C705.711487,696.239685 683.884460,678.492004 665.516479,656.936890 
	C655.367859,645.027344 645.651306,632.731079 634.392761,621.798401 
	C629.095276,616.654175 628.094910,616.747192 623.679749,623.342163 
	C627.874146,627.557922 632.157532,631.730469 636.293762,636.044067 
	C652.288452,652.724976 666.846558,670.404663 674.888245,692.520508 
	C678.410278,702.206787 681.866455,711.917053 685.346313,721.618652 
	C690.507996,736.009033 694.739502,750.818054 703.651184,763.555298 
	C709.754333,772.278564 717.591309,778.714844 728.203247,781.212830 
	C738.729675,783.690613 747.128235,778.272095 749.657166,767.844727 
	C750.792603,763.162842 750.347412,758.398193 750.886353,753.088684 
	C755.850342,756.655334 758.452637,761.342102 761.276855,765.698547 
	C767.382385,775.116516 772.596375,784.996155 772.458435,796.672485 
	C772.333313,807.264709 763.669189,812.947266 753.901428,809.147888 
	C750.956116,808.002258 749.113220,805.276428 746.262878,803.901062 
	C744.431885,809.934875 746.597961,814.629883 752.318665,817.579956 
	C765.718079,824.489807 783.864624,812.882874 784.687561,796.995850 
	C785.320984,784.767639 780.584045,774.233826 774.578979,764.125183 
	C762.734558,744.186523 746.164551,728.594177 727.713928,713.806702 
M582.638489,552.682556 
	C578.477539,555.580872 574.774902,558.949707 571.312561,562.908020 
	C580.297058,570.892517 588.745300,578.590881 596.425293,587.075195 
	C597.639038,588.416016 598.869202,588.609497 600.328918,587.508118 
	C601.743896,586.440552 602.134644,585.028748 601.280823,583.570496 
	C595.268188,573.301636 590.252625,562.449097 582.638489,552.682556 
M617.208862,596.798340 
	C612.592224,600.901794 607.458740,604.247559 602.098328,607.291565 
	C599.886475,608.547668 598.518982,610.463196 599.914734,613.088196 
	C600.926880,614.991638 602.707092,616.378723 604.846375,615.278076 
	C611.634338,611.785706 618.432861,608.217529 623.294983,602.038269 
	C624.952332,599.932007 624.868896,597.727417 622.961365,595.746338 
	C620.981934,593.690552 619.374023,595.189026 617.208862,596.798340 
M805.453796,854.528992 
	C806.341919,858.441528 808.384399,861.488098 812.726257,861.215515 
	C816.481018,860.979858 820.776794,855.113037 820.595398,851.331421 
	C820.482849,848.985046 819.345703,847.329407 817.276550,846.150330 
	C815.143555,844.934875 813.548889,845.735901 811.827637,847.008789 
	C809.281799,848.891785 806.570435,850.571350 805.453796,854.528992 
M789.953796,828.507751 
	C788.621521,829.515198 787.388550,830.620911 786.762451,832.221130 
	C785.957092,834.279236 786.328796,836.132996 787.937378,837.662109 
	C789.294495,838.952271 790.846863,840.161194 792.785706,839.142029 
	C796.157654,837.369690 799.447693,835.367188 801.759094,832.251221 
	C803.456421,829.963074 803.140320,827.565063 801.188538,825.487610 
	C799.314880,823.493225 797.250549,823.335754 795.026428,824.992920 
	C793.569519,826.078369 792.046936,827.075806 789.953796,828.507751 
z"/>
<path fill="#000000" opacity="1.000000" stroke="none" 
	d="
M538.744934,520.777893 
	C483.412079,566.290710 414.477844,567.912231 377.115509,554.194763 
	C425.492401,534.811646 470.292419,509.957214 517.678711,490.448730 
	C511.534088,500.888641 502.357330,508.187958 492.413239,516.572754 
	C502.932739,513.550110 510.688232,508.084412 518.286804,502.478973 
	C532.378479,492.083618 544.020691,479.348999 553.241089,464.455170 
	C555.221680,461.256012 557.729065,458.941681 560.949219,456.922638 
	C571.525330,450.291412 581.851257,443.262024 592.310181,436.442017 
	C594.319519,435.131714 595.989929,433.134247 599.691345,432.644440 
	C587.293640,467.995239 567.414795,497.174103 538.744934,520.777893 
z"/>
<path fill="#000000" opacity="1.000000" stroke="none" 
	d="
M355.272247,448.698181 
	C351.355194,445.771820 347.498047,443.602966 342.910339,442.880920 
	C335.685425,441.743744 329.847565,447.539764 331.651428,454.604462 
	C334.282715,464.909485 340.163269,472.917114 349.746307,477.901825 
	C353.259766,479.729370 356.942474,480.315125 360.820221,478.925140 
	C362.008698,478.499146 363.289215,477.802521 364.957520,478.862091 
	C363.972717,483.286072 360.255646,483.887390 356.781982,484.261780 
	C349.472137,485.049622 342.929321,482.530457 337.195404,478.278290 
	C325.257446,469.425385 316.512604,458.250610 315.775482,442.831085 
	C315.079437,428.270142 323.964905,421.129425 338.350220,423.671692 
	C351.616455,426.016205 366.618835,441.523407 368.229187,454.726227 
	C368.478424,456.769531 368.971069,459.003662 366.896759,462.018768 
	C363.572021,456.905212 359.997375,452.477966 355.272247,448.698181 
z"/>
<path fill="#000000" opacity="1.000000" stroke="none" 
	d="
M284.358459,413.615173 
	C278.960938,405.214386 277.169739,396.515808 279.931793,387.172882 
	C281.635132,381.411102 285.463013,377.505096 291.566864,377.012054 
	C297.338470,376.545959 301.153931,379.935181 303.769196,384.886383 
	C307.952454,392.806213 309.036041,401.284363 308.216095,410.035950 
	C307.689423,415.657257 304.904358,418.505371 300.207092,418.950012 
	C299.119843,417.946106 299.625885,416.864868 300.027893,415.761963 
	C302.316650,409.482422 297.935028,402.299377 291.381165,401.567200 
	C288.158600,401.207184 286.568298,404.059784 287.577728,408.445496 
	C288.093201,410.685028 289.715363,412.636780 289.332794,415.103210 
	C289.289154,415.384521 288.977295,415.624268 288.766296,415.915771 
	C286.755676,416.553040 285.799438,414.971863 284.358459,413.615173 
z"/>
<path fill="#000000" opacity="1.000000" stroke="none" 
	d="
M304.151703,294.226074 
	C307.985260,288.777954 312.677856,284.952209 318.501129,282.512970 
	C320.671631,281.603821 322.925201,280.924530 325.257660,281.134674 
	C327.235138,281.312866 329.434967,281.778473 329.933929,284.145966 
	C330.389679,286.308472 328.265045,286.712250 326.952179,287.581207 
	C316.260498,294.657867 310.114288,304.200287 310.276245,317.411530 
	C310.339539,322.574097 313.064026,326.401215 315.951447,330.175323 
	C311.153625,333.837067 302.610413,331.256470 298.923401,325.298920 
	C295.810577,320.269196 296.159607,314.764099 297.189301,309.355896 
	C298.222656,303.928619 300.537598,298.942078 304.151703,294.226074 
z"/>
<path fill="#000000" opacity="1.000000" stroke="none" 
	d="
M293.237061,356.801697 
	C290.011444,357.601807 287.237701,357.743469 284.931976,355.476654 
	C282.053986,352.647278 281.907227,347.880310 284.602020,345.116058 
	C287.167175,342.484772 291.742737,342.593658 294.480835,345.351135 
	C297.674408,348.567322 297.327820,353.016754 293.237061,356.801697 
z"/>
<path fill="#000000" opacity="1.000000" stroke="none" 
	d="
M290.220093,442.684448 
	C289.467743,439.923004 288.820129,437.446167 291.290375,435.597595 
	C293.182922,434.181366 295.106079,434.744293 296.809692,435.906708 
	C299.345154,437.636688 301.454834,439.881866 301.160675,443.178986 
	C300.862915,446.516571 298.296661,446.778625 295.621826,446.402222 
	C293.372772,446.085724 291.650360,444.897003 290.220093,442.684448 
z"/>
<path fill="#000000" opacity="1.000000" stroke="none" 
	d="
M316.991882,373.136047 
	C316.349854,372.343170 315.878845,371.814514 315.741486,371.210083 
	C315.135468,368.542267 314.911041,365.825073 317.675903,364.193359 
	C319.355316,363.202209 321.227142,363.442017 322.625244,364.978790 
	C324.454529,366.989471 325.049255,369.507477 323.762573,371.822784 
	C322.363220,374.340759 319.891510,374.606262 316.991882,373.136047 
z"/>
<path fill="#000000" opacity="1.000000" stroke="none" 
	d="
M338.630310,264.196838 
	C339.034698,262.933655 339.202911,261.794220 339.861786,261.188568 
	C341.786835,259.418915 344.363403,258.004333 346.451813,260.186798 
	C348.540558,262.369629 346.771698,264.653839 344.730621,265.973633 
	C342.438812,267.455536 339.762573,268.848022 338.630310,264.196838 
z"/>
<path fill="#000000" opacity="1.000000" stroke="none" 
	d="
M713.049561,761.889893 
	C705.149292,751.541504 700.853394,739.836243 696.558167,728.119507 
	C692.057373,715.841919 687.466797,703.597229 683.436340,690.861938 
	C700.146851,703.474365 715.635742,717.392273 731.557129,731.672302 
	C726.144592,735.154907 723.555359,739.496521 724.395935,745.386597 
	C724.841675,748.510254 725.710510,751.107056 729.813049,749.086731 
	C731.186096,748.410583 732.733765,748.540894 734.186829,749.120789 
	C738.278564,750.754089 741.203857,757.668152 740.209534,763.348877 
	C739.375122,768.116089 735.887817,771.129150 730.789185,771.319397 
	C723.233459,771.601318 718.104431,767.153992 713.049561,761.889893 
z"/>
</svg>