<svg version="1.1" id="Layer_1" xmlns="http://www.w3.org/2000/svg" xmlns:xlink="http://www.w3.org/1999/xlink" x="0px" y="0px"
	 width="100%" viewBox="0 0 1024 1024" enable-background="new 0 0 1024 1024" xml:space="preserve">
<path fill="#000000" opacity="1.000000" stroke="none" 
	d="
M668.787842,635.211914 
	C745.439453,711.774902 821.810730,788.118286 898.301697,864.341431 
	C903.670166,869.691101 908.889465,874.706421 910.722412,882.512390 
	C914.874146,900.192932 900.582214,919.025024 882.499634,919.562744 
	C872.962158,919.846313 865.223389,916.801147 858.357971,909.917053 
	C777.275818,828.615356 696.063110,747.443726 614.838196,666.284485 
	C605.634094,657.087769 608.672607,658.457703 598.516479,664.065552 
	C576.198730,676.388611 552.488037,683.711243 526.950378,685.489136 
	C484.650635,688.433777 446.380615,677.465210 412.778870,651.876465 
	C377.883942,625.302917 357.142792,589.709106 349.595917,546.523071 
	C342.375610,505.205597 349.425507,466.420502 371.297058,430.589386 
	C374.250702,425.750610 372.286102,423.618805 369.269257,420.605408 
	C301.116943,352.532684 232.997650,284.426941 164.908218,216.291336 
	C147.828201,199.199768 130.833099,182.022736 113.880302,164.804916 
	C107.459518,158.283752 101.838974,151.171646 102.710777,141.244110 
	C103.810661,128.719482 110.274857,119.349579 121.735916,114.659256 
	C133.202042,109.966873 144.794418,111.621452 153.749268,120.517662 
	C205.408051,171.838135 256.795074,223.432129 308.288361,274.919250 
	C342.579407,309.206207 376.933289,343.430542 411.133240,377.808075 
	C414.293213,380.984467 416.577698,380.848663 420.124573,378.565735 
	C448.817932,360.098022 480.097107,350.258362 514.423279,350.627258 
	C579.430176,351.325867 628.097839,380.476593 661.467224,435.606781 
	C672.075684,453.133118 677.639587,472.632751 680.473328,492.983856 
	C685.718750,530.655273 679.621887,566.158752 661.146240,599.448364 
	C658.563171,604.102417 655.704163,608.623840 652.682190,613.006165 
	C650.848572,615.665222 650.815979,617.548462 653.259338,619.849670 
	C658.472290,624.759399 663.457703,629.910889 668.787842,635.211914 
M393.929047,454.376099 
	C385.204407,471.070923 380.069733,488.755859 378.116150,507.541382 
	C375.623688,531.508484 379.549347,554.291077 389.651184,575.976929 
	C414.014160,628.277527 471.701660,665.056152 535.357117,654.575256 
	C551.766235,651.873535 567.173584,646.192871 581.606201,637.917236 
	C583.007202,637.113892 584.887939,636.397949 584.445374,634.301086 
	C583.995544,632.169861 581.960388,632.418945 580.364563,632.205811 
	C575.595215,631.568909 570.801819,631.094910 566.048035,630.361328 
	C525.666321,624.129883 495.412628,602.987976 475.660278,567.439941 
	C461.683746,542.286499 458.016907,514.974731 462.904816,486.749084 
	C467.169617,462.121277 477.436737,440.212769 494.707397,421.787079 
	C507.213196,408.444824 522.447449,399.043610 538.432800,390.634338 
	C540.140442,389.735992 542.620850,389.037048 542.300720,386.613556 
	C541.999329,384.331421 539.609375,383.817474 537.664368,383.488220 
	C523.816895,381.144043 509.858063,380.308685 495.971924,382.558624 
	C450.677185,389.897705 416.594543,413.452820 393.929047,454.376099 
M577.535034,488.238220 
	C578.270630,490.613495 578.857483,493.049530 579.794006,495.342712 
	C580.417053,496.868256 579.664001,499.598236 582.301514,499.598785 
	C584.853394,499.599335 584.527100,497.124512 584.858826,495.430695 
	C587.074707,484.118103 592.349854,475.235626 603.858704,471.212097 
	C604.940002,470.834045 606.136780,470.406128 606.107849,468.906769 
	C606.072327,467.066467 604.715759,466.360962 603.276123,465.839630 
	C591.606934,461.614105 586.339172,452.616089 584.628784,440.937225 
	C584.393738,439.332184 584.347046,437.565643 581.611023,436.905487 
	C578.906067,443.618195 578.832153,451.357971 573.921448,457.349121 
	C568.899963,463.475372 561.455383,464.938995 553.578918,468.333710 
	C563.743530,473.263184 573.958801,476.373199 577.535034,488.238220 
M525.016479,546.975769 
	C526.203979,547.472717 527.017944,546.930115 527.359802,545.873596 
	C529.003418,540.794434 531.526428,536.513733 536.663208,534.140137 
	C537.959839,533.540955 538.443726,531.458862 537.069641,530.805664 
	C531.885925,528.341370 529.148438,523.578857 525.489685,518.015320 
	C522.789856,524.859619 517.547485,528.210327 512.857910,533.551025 
	C520.428467,535.439087 521.875977,541.461853 525.016479,546.975769 
M615.426697,553.548706 
	C619.008667,552.615479 620.122620,550.030884 619.557312,546.734436 
	C619.101196,544.074524 616.760376,542.936279 614.445312,542.745911 
	C612.264038,542.566528 610.832520,544.338684 610.267883,546.360840 
	C609.358521,549.617615 611.059570,551.728088 613.774109,553.222412 
	C614.057373,553.378296 614.401367,553.424072 615.426697,553.548706 
z"/>
<path fill="#000000" opacity="1.000000" stroke="none" 
	d="
M418.562744,342.643188 
	C410.227966,347.781586 404.475983,345.510345 398.292755,338.662689 
	C387.476471,326.683990 375.546021,315.713623 364.153259,304.250427 
	C362.565308,302.652679 360.465637,301.352417 359.751099,298.247711 
	C365.850769,294.470734 372.545044,291.640991 379.180695,288.731476 
	C410.007050,275.214996 442.228790,266.710541 475.610992,262.871368 
	C502.116852,259.823029 528.613586,260.125122 555.196838,263.366730 
	C613.791748,270.511932 667.425842,291.034821 716.729492,322.866028 
	C754.383423,347.175964 788.102844,376.466675 818.982727,408.911133 
	C844.856445,436.095825 868.839966,464.865265 888.996765,496.643707 
	C892.298279,501.848816 895.156799,507.244812 896.399414,513.433838 
	C897.607117,519.449036 895.840210,524.598572 892.677551,529.480896 
	C880.794617,547.825195 867.118164,564.815552 853.364380,581.761414 
	C828.413879,612.502563 801.374756,641.166870 770.498840,666.071472 
	C763.239624,671.926819 755.959717,677.756592 748.689880,683.598877 
	C747.189514,684.804688 745.681274,685.864685 743.894653,684.048340 
	C729.658630,669.576233 715.421265,655.105469 701.012451,640.459595 
	C701.752747,637.901733 704.304688,636.692627 706.317932,635.114563 
	C736.015198,611.837708 763.934143,586.660156 788.558228,557.991394 
	C798.865295,545.991272 808.783020,533.660583 817.871094,520.695190 
	C822.410583,514.218994 822.363831,514.157776 817.690918,507.783508 
	C804.575012,489.891876 790.444275,472.830688 775.134827,456.783417 
	C743.728210,423.863251 709.588989,394.308746 670.168640,371.138367 
	C635.049438,350.496063 597.652039,336.355103 557.288818,330.531311 
	C510.271423,323.747406 464.119781,327.786194 418.562744,342.643188 
z"/>
<path fill="#000000" opacity="1.000000" stroke="none" 
	d="
M582.931641,765.216431 
	C558.179443,770.509155 533.539307,772.766968 508.691742,772.147827 
	C463.908783,771.031982 421.169586,760.465332 380.174988,742.833191 
	C312.830200,713.867554 255.617447,670.679199 206.252625,616.908081 
	C183.156631,591.750488 161.080841,565.675293 141.958038,537.265991 
	C139.068329,532.972961 136.719986,528.382507 134.567062,523.679138 
	C131.027390,515.946167 131.706131,508.765320 136.207672,501.451538 
	C149.521667,479.820068 165.572067,460.277191 181.497452,440.593872 
	C207.503937,408.450531 236.662018,379.616486 269.547882,354.524139 
	C272.938385,351.937164 274.759308,351.944946 277.742950,355.017365 
	C290.390564,368.041321 303.326599,380.784851 316.127716,393.660217 
	C320.204407,397.760529 320.088318,397.971222 315.450348,401.481873 
	C275.316864,431.860352 240.591248,467.551880 210.893219,508.155579 
	C206.247635,514.507080 206.326141,514.624878 210.948380,521.145020 
	C245.449585,569.812256 287.910034,610.191528 337.450439,643.345642 
	C370.586914,665.521667 405.466309,683.863342 443.893463,695.141541 
	C473.906830,703.950317 504.551361,707.292969 535.634766,705.466919 
	C560.111145,704.028992 584.005676,698.859802 607.039490,690.245911 
	C609.987610,689.143433 611.975220,689.451172 614.144714,691.636902 
	C628.462341,706.061218 642.857300,720.408752 657.213257,734.795044 
	C658.139465,735.723145 659.228760,736.589111 659.382019,739.164795 
	C635.364929,750.953125 609.774048,759.218994 582.931641,765.216431 
z"/>
<path fill="#000000" opacity="1.000000" stroke="none" 
	d="
M440.755798,474.593018 
	C436.178925,478.051880 431.276215,479.734711 426.016846,478.994598 
	C415.356140,477.494446 409.715546,469.447998 411.290771,458.645996 
	C413.710663,442.051758 425.730835,428.774353 440.731598,426.145081 
	C445.056549,425.386993 449.008362,426.393005 452.476166,429.011353 
	C453.785858,430.000275 455.090485,431.379913 454.109467,433.258240 
	C453.241180,434.920746 452.045135,435.895935 449.757599,435.762695 
	C436.475250,434.989044 424.496979,449.294281 427.479309,462.171478 
	C428.488159,466.527557 431.665314,468.568298 437.779877,468.787720 
	C441.952972,468.937469 442.717072,470.241669 440.755798,474.593018 
z"/>
<path fill="#000000" opacity="1.000000" stroke="none" 
	d="
M432.961609,574.492188 
	C434.033020,580.520630 434.544189,586.111694 431.774139,591.448730 
	C430.253082,594.379333 428.256958,596.823730 424.764038,597.226196 
	C421.352264,597.619263 419.304382,596.652710 420.078949,592.460449 
	C421.753601,583.397156 420.183594,574.913452 414.631439,567.385010 
	C413.761108,566.204834 412.637878,565.148926 411.452118,564.280579 
	C410.154572,563.330444 408.751343,562.015625 406.940887,563.003235 
	C405.000885,564.061523 404.068878,565.906921 404.406738,568.040222 
	C405.002533,571.801941 405.767700,575.544861 406.658569,579.248352 
	C407.076996,580.987793 407.545990,582.658875 405.594910,583.560974 
	C403.747009,584.415344 402.828583,582.778320 402.103638,581.556030 
	C397.759033,574.231079 396.128021,566.340820 398.617889,558.111938 
	C400.680634,551.294739 406.479858,548.471252 413.174866,550.736755 
	C424.372742,554.526062 429.970734,563.195862 432.961609,574.492188 
z"/>
<path fill="#000000" opacity="1.000000" stroke="none" 
	d="
M476.091400,635.846558 
	C463.912506,638.454041 452.057983,629.472961 447.722229,620.899048 
	C446.132141,617.754700 444.531311,614.295044 447.783600,611.257385 
	C450.964233,608.286621 454.400421,609.752136 457.461731,611.600647 
	C464.028473,615.565918 470.491241,619.758545 475.531647,625.648499 
	C478.048096,628.589111 480.419769,631.921448 476.091400,635.846558 
z"/>
<path fill="#000000" opacity="1.000000" stroke="none" 
	d="
M383.665863,527.752808 
	C383.736725,523.509094 383.088104,519.620789 385.025604,516.076050 
	C386.259552,513.818420 387.890900,511.723419 390.698853,511.880005 
	C393.791473,512.052490 395.432190,514.501526 395.899841,517.169250 
	C397.302734,525.172180 396.557709,533.050781 393.042694,540.451965 
	C391.454346,543.796387 389.246094,543.262085 387.532990,540.424683 
	C385.275513,536.685547 384.258698,532.503601 383.665863,527.752808 
z"/>
<path fill="#000000" opacity="1.000000" stroke="none" 
	d="
M479.671417,411.805725 
	C476.736145,413.806213 473.936554,415.147644 470.754028,415.715027 
	C468.975281,416.032166 467.349335,416.009979 466.298279,414.446716 
	C465.092590,412.653473 465.800659,410.892670 467.078827,409.447113 
	C471.567078,404.371124 477.352844,401.625214 483.966034,400.827240 
	C487.197540,400.437286 488.363525,402.767578 486.614227,405.689148 
	C485.035889,408.325195 482.427002,409.892181 479.671417,411.805725 
z"/>
<path fill="#000000" opacity="1.000000" stroke="none" 
	d="
M442.284119,527.476379 
	C447.199066,530.739868 446.828430,535.274841 445.856171,539.708313 
	C445.302673,542.232178 443.360626,544.110352 440.540161,544.200500 
	C437.937317,544.283875 436.291504,542.625549 435.230957,540.380737 
	C433.593353,536.914673 433.047089,533.340027 435.187378,529.950623 
	C436.690979,527.569519 438.899261,526.169067 442.284119,527.476379 
z"/>
<path fill="#000000" opacity="1.000000" stroke="none" 
	d="
M540.655090,636.067200 
	C545.371277,639.726074 545.101013,642.779419 540.119324,644.796631 
	C537.853577,645.713989 535.453125,646.582886 532.919189,645.873108 
	C530.570801,645.215271 528.628418,644.083130 528.526245,641.250305 
	C528.422729,638.378296 529.820496,636.601501 532.514343,635.748413 
	C535.128418,634.920654 537.713867,635.152405 540.655090,636.067200 
z"/>
<path fill="#000000" opacity="1.000000" stroke="none" 
	d="
M504.319031,639.288452 
	C501.667419,643.364441 498.371002,643.226807 495.155823,641.065674 
	C492.210358,639.085754 491.372070,635.993835 493.000366,632.759277 
	C494.483948,629.812195 497.156860,629.054382 500.160889,630.293396 
	C504.011200,631.881409 505.912811,634.604431 504.319031,639.288452 
z"/>
<path fill="#000000" opacity="1.000000" stroke="none" 
	d="
M413.711731,494.753723 
	C414.049347,496.770233 414.314789,498.412109 414.291321,500.049866 
	C414.245850,503.218933 412.799805,505.756653 409.533081,506.031403 
	C406.047333,506.324615 404.736237,503.523438 404.177673,500.608582 
	C403.543610,497.299500 404.309143,494.131744 407.262726,492.327667 
	C409.716492,490.828888 412.058960,491.749786 413.711731,494.753723 
z"/>
<path fill="#000000" opacity="1.000000" stroke="none" 
	d="
M463.485352,591.728394 
	C461.710785,595.899475 458.863556,596.110718 455.699341,594.292175 
	C452.604431,592.513550 450.920471,587.275330 452.375427,584.778809 
	C453.315979,583.164917 454.771271,582.625061 456.565277,582.722168 
	C459.524902,582.882446 461.512848,584.625244 462.792358,587.017029 
	C463.449707,588.245789 463.327728,589.891479 463.485352,591.728394 
z"/>
</svg>