<svg version="1.1" id="Layer_1" xmlns="http://www.w3.org/2000/svg" xmlns:xlink="http://www.w3.org/1999/xlink" x="0px" y="0px"
	 width="100%" viewBox="0 0 1024 1024" enable-background="new 0 0 1024 1024" xml:space="preserve">
<path fill="#000000" opacity="1.000000" stroke="none" 
	d="
M581.382629,434.448303 
	C503.639954,485.635620 422.965881,530.313171 335.005890,560.801575 
	C306.994171,570.510864 278.572266,578.689636 249.208054,583.005005 
	C229.904129,585.841919 210.450485,587.180786 191.169891,582.504456 
	C163.722931,575.847351 152.332077,554.549133 161.505142,527.737610 
	C169.550308,504.222717 183.712997,484.632172 200.344727,466.633942 
	C202.586304,464.208191 203.221649,462.420746 201.987137,459.276978 
	C195.029968,441.559937 190.297958,423.200592 188.011398,404.329590 
	C185.809204,386.154755 185.542755,367.944427 187.396133,349.609985 
	C190.626373,317.655060 199.973160,287.745880 215.743027,259.894745 
	C241.739807,213.981979 279.126312,180.642670 327.581329,159.702133 
	C348.332458,150.734222 369.919403,144.655365 392.298187,141.857376 
	C441.212341,135.741714 487.734711,144.264938 531.719849,166.302002 
	C567.594238,184.275482 596.730835,210.181168 619.733154,242.984985 
	C621.583435,245.623703 623.383972,246.340775 626.309937,245.632507 
	C642.330139,241.754547 658.542786,239.177414 675.026245,238.289749 
	C685.409607,237.730576 695.697815,238.339050 705.669800,241.204681 
	C726.022217,247.053329 734.935120,264.734955 728.756775,286.091461 
	C723.533691,304.145691 712.854370,319.001740 700.937134,333.000732 
	C668.251099,371.396454 628.982605,402.181274 587.458496,430.304901 
	C585.527893,431.612488 583.605225,432.931854 581.382629,434.448303 
M437.438080,471.342224 
	C417.189514,465.158905 398.983765,455.268188 384.000275,440.240631 
	C349.187897,405.325867 335.609924,363.201660 344.595642,314.805450 
	C351.823334,275.877960 373.889801,247.262741 409.675537,229.636902 
	C411.445190,228.765274 413.915619,227.928024 413.408234,225.575226 
	C412.815735,222.827759 409.985718,223.196671 407.949036,223.459854 
	C401.532013,224.289169 395.097229,225.133636 388.763794,226.432816 
	C340.858734,236.259583 305.507812,263.300995 282.784607,306.172577 
	C265.809418,338.199432 262.516815,372.838196 269.586060,408.045319 
	C277.232666,446.127808 296.908508,477.043213 328.848297,499.712891 
	C330.329315,500.764099 331.803772,502.115906 334.785858,502.078705 
	C325.829315,491.732544 317.008667,482.245270 313.369293,469.363800 
	C322.569305,476.287842 331.008270,484.052399 340.612305,490.313934 
	C350.206665,496.569183 360.192719,502.024323 371.074493,506.364166 
	C373.304108,501.260406 376.744385,497.727539 381.861633,498.129700 
	C389.525146,498.731934 396.747650,501.417358 400.850830,508.478394 
	C403.289337,512.674805 405.644928,513.088379 409.732727,511.174316 
	C429.653107,501.846741 449.013336,491.430939 468.477753,481.217255 
	C469.842285,480.501251 471.575653,479.879639 471.891815,477.318970 
	C460.550415,475.896271 449.130798,475.076202 437.438080,471.342224 
M244.596710,425.712891 
	C236.853653,397.712891 235.287766,369.425476 240.557266,340.799927 
	C255.992996,256.948578 323.686279,199.097687 410.444458,192.823517 
	C427.549255,191.586548 444.643341,192.846909 461.545166,196.538818 
	C519.570435,209.213455 563.108276,240.910980 590.035767,294.264893 
	C604.286133,322.500580 609.913635,352.656677 608.351624,384.208313 
	C608.251343,386.233734 607.422852,388.575317 609.971924,390.650818 
	C615.440002,387.850372 620.089539,383.571533 625.229309,380.020599 
	C627.879456,378.189697 628.786926,376.072906 628.787903,372.928497 
	C628.791321,361.752655 627.799316,350.686371 625.790222,339.704102 
	C614.458801,277.765778 581.143860,230.955154 527.020508,199.523911 
	C483.066132,173.998138 435.268250,166.901138 385.329651,175.437225 
	C343.473236,182.591797 306.778687,200.882309 276.631348,230.781601 
	C240.587830,266.528564 220.756332,310.264923 217.515671,361.010376 
	C215.972443,385.175598 218.123016,409.146149 225.145370,432.560333 
	C239.519974,480.488586 267.524414,518.441650 308.246796,547.223755 
	C309.593323,548.175476 311.001251,549.714478 312.662598,549.203979 
	C319.740326,547.028870 326.737244,544.590820 333.525452,542.328186 
	C333.425659,538.961487 331.336304,538.201477 329.712341,537.197632 
	C287.393158,511.040070 258.739258,474.410278 244.596710,425.712891 
M257.428253,563.680359 
	C262.323639,562.658081 267.393463,562.242798 272.642273,559.591614 
	C245.975403,537.822937 226.091873,511.406128 210.798508,480.703796 
	C205.587357,484.800507 202.381744,489.465546 199.027725,493.909180 
	C189.272354,506.833954 179.980072,520.071838 176.096344,536.171936 
	C172.316238,551.842346 178.816254,562.315125 194.695190,565.609680 
	C215.424057,569.910583 236.041367,567.586365 257.428253,563.680359 
M654.542053,257.306732 
	C647.098145,258.483978 639.564819,259.294342 632.057007,262.321991 
	C638.463989,276.582764 644.727661,290.336060 649.302368,304.781555 
	C653.883057,319.245667 656.548889,334.142456 659.065125,349.041443 
	C662.253601,348.748932 663.537720,346.818237 665.057617,345.393921 
	C675.025085,336.053192 684.502380,326.219788 692.910034,315.453064 
	C701.105286,304.958252 708.971375,294.212219 712.678772,281.073975 
	C716.333496,268.122223 711.568298,259.370056 698.462219,256.403992 
	C684.107361,253.155334 669.733521,254.971161 654.542053,257.306732 
M535.236206,348.162018 
	C533.118530,345.149445 532.492920,341.191406 528.669312,337.835205 
	C525.841309,347.230804 520.508423,353.967377 511.329102,357.893280 
	C521.468506,361.057770 525.373169,369.073792 529.427124,377.724243 
	C533.219543,368.143707 538.440918,360.800934 549.199341,357.983795 
	C544.416687,353.767487 538.626099,353.246643 535.236206,348.162018 
M472.480133,271.977631 
	C470.281738,274.975952 465.907715,274.951355 462.879395,278.941986 
	C472.587830,281.398102 475.946869,289.152557 479.325684,297.276642 
	C482.320679,288.482239 486.534912,281.461334 495.812042,278.083527 
	C487.409424,274.393097 482.144836,268.436218 479.855438,259.116974 
	C476.352203,263.644043 476.246887,268.432831 472.480133,271.977631 
M462.227478,423.275818 
	C463.242432,424.741577 463.539673,426.687042 465.646698,428.117432 
	C468.359711,423.205139 470.999084,418.226044 477.501740,415.702545 
	C472.093384,411.716309 468.710968,407.417633 465.506348,403.133911 
	C462.961151,404.561737 462.474579,406.647095 461.615265,408.363403 
	C460.166565,411.256866 455.517548,411.784302 455.671631,415.288513 
	C455.826599,418.812500 460.729401,419.358246 462.227478,423.275818 
M395.003967,352.743011 
	C393.646881,354.543213 393.775421,356.046539 396.001617,356.933411 
	C397.116364,357.377502 398.644653,357.337341 398.855103,356.042206 
	C399.216614,353.817535 398.088379,352.367035 395.003967,352.743011 
z"/>
<path fill="#000000" opacity="1.000000" stroke="none" 
	d="
M550.744629,537.727295 
	C583.408752,510.691528 606.517761,477.559906 619.004150,437.274384 
	C621.213928,430.144836 622.845947,422.831299 624.587830,415.565094 
	C625.040161,413.678375 625.711365,412.167114 627.296631,411.005463 
	C637.663269,403.408936 647.172852,394.807587 656.518982,386.014648 
	C657.082825,385.484222 657.821899,385.140045 658.855530,384.462677 
	C660.444397,390.676941 658.719788,396.408264 658.099304,401.993958 
	C654.091309,438.074524 642.790283,471.714020 623.245667,502.447784 
	C618.607117,509.741852 613.228943,516.577026 609.893250,524.670959 
	C603.641174,539.841492 607.286194,554.347046 612.742798,568.718811 
	C616.488647,578.584534 622.001160,587.515808 627.688660,596.348450 
	C629.920349,599.814270 632.960693,601.511597 637.052917,602.173462 
	C646.525818,603.705627 651.291931,610.575867 649.566589,619.945068 
	C648.867493,623.741760 650.257507,626.761780 652.199219,629.765442 
	C661.681519,644.433899 673.718933,656.878784 686.396851,668.716248 
	C711.746826,692.385742 740.030090,712.594177 765.824646,735.738464 
	C777.753174,746.441406 789.365356,757.580688 796.290833,772.385315 
	C803.970703,788.802551 807.032959,805.873108 801.570862,823.721008 
	C800.832947,826.132080 800.873047,827.970032 803.225647,829.778320 
	C808.643738,833.942871 811.244080,839.896667 812.240662,846.485535 
	C812.568909,848.655579 813.358643,850.016541 815.018677,851.413513 
	C821.786621,857.109375 825.021790,864.134338 822.430359,873.103027 
	C820.103760,881.154968 814.564636,885.892517 806.550537,887.140991 
	C797.284851,888.584473 789.757019,885.071289 785.029602,876.858398 
	C783.011475,873.352173 780.717773,871.018982 776.804565,869.584167 
	C771.350830,867.584534 767.977478,863.230713 766.608887,857.493408 
	C766.036255,855.093018 765.311157,853.316467 762.143799,853.235046 
	C736.227478,852.569702 717.076355,839.837524 702.661255,819.148682 
	C690.551147,801.768127 683.465271,781.919739 675.701172,762.455933 
	C661.764465,727.517944 645.064941,694.088440 622.838867,663.604553 
	C620.489136,660.381775 617.906677,657.319031 615.299927,654.296082 
	C613.144775,651.796875 610.319336,650.654419 606.987549,650.289917 
	C599.454407,649.465759 594.231750,642.700256 596.028748,635.383057 
	C597.250488,630.407898 595.954224,626.769226 592.940735,623.022156 
	C583.262817,610.988098 572.772095,599.941406 558.699219,592.920471 
	C546.227417,586.698181 533.765991,586.879395 521.208008,592.692383 
	C496.184387,604.275513 469.914185,610.636047 442.365967,612.501343 
	C393.446991,615.813660 347.997253,604.541016 305.214905,581.252197 
	C304.656006,580.947998 304.173401,580.503540 303.354004,579.904297 
	C304.467224,578.278931 306.060120,578.051453 307.580933,577.572876 
	C318.683685,574.078735 329.789734,570.592285 340.844452,566.950745 
	C343.376801,566.116516 345.517670,566.222107 348.002838,567.245972 
	C378.441864,579.786377 410.296875,584.123901 442.863770,581.440247 
	C483.065369,578.127441 518.996338,563.325867 550.744629,537.727295 
M675.950073,692.542236 
	C685.135864,701.060669 695.176880,708.458862 705.704956,715.213501 
	C716.937988,722.420654 727.904541,729.973083 737.107117,739.763062 
	C738.816956,741.582092 740.948669,743.233643 741.707703,747.433594 
	C728.861633,739.381531 715.293579,736.356262 702.358643,730.860901 
	C701.994141,733.868896 703.805115,734.483643 705.019165,735.456970 
	C710.956665,740.217529 717.913635,742.996521 724.963013,745.575073 
	C735.338379,749.370361 745.362000,753.901855 753.783875,761.196411 
	C764.029602,770.070862 770.454773,780.706726 767.221375,794.969055 
	C765.175415,803.993835 756.595215,810.711304 748.096130,810.291077 
	C739.278442,809.855103 731.188171,802.328613 729.762573,793.235107 
	C728.359497,784.285095 732.023865,780.568359 740.843079,782.018860 
	C741.628784,782.148071 742.421631,782.636902 743.110168,781.622314 
	C742.916626,777.925232 741.060120,775.469299 737.374573,774.520508 
	C729.829773,772.578125 723.780701,776.063477 721.340332,783.449768 
	C719.802612,788.104065 720.324463,792.628784 721.483337,797.195801 
	C725.542175,813.191528 742.256287,823.197327 757.192566,818.579102 
	C775.010010,813.070007 783.405762,793.596558 775.979675,775.713928 
	C771.659180,765.309753 764.335266,757.133667 757.087769,748.901917 
	C742.428284,732.251892 724.374634,719.691650 706.342468,707.069946 
	C682.903748,690.664001 660.567932,673.058105 646.592407,647.161621 
	C646.057190,646.169922 645.379761,645.059021 643.253052,646.271301 
	C645.178894,651.859558 646.293884,657.929810 649.625427,663.077026 
	C656.722473,674.042114 665.800659,683.312561 675.950073,692.542236 
M578.486023,559.960205 
	C576.427429,558.968811 574.602295,559.230347 573.160522,561.068420 
	C571.892151,562.685608 571.744690,564.692566 572.831177,566.213379 
	C577.213196,572.347473 582.520447,577.598145 588.885376,581.917358 
	C585.271973,574.806885 583.729553,566.885803 578.486023,559.960205 
M621.277588,626.934143 
	C621.675110,627.221863 622.195862,627.842590 622.451782,627.747864 
	C627.214905,625.984924 631.039429,622.743774 633.915649,618.786194 
	C635.267700,616.925842 633.556946,614.987305 630.862122,615.405334 
	C626.806763,616.034241 621.396484,622.110962 621.277588,626.934143 
M788.297058,846.790405 
	C788.223633,848.306824 788.192566,849.863098 789.980652,850.455200 
	C791.415100,850.930237 792.711731,850.200684 793.448181,849.140564 
	C794.857239,847.112244 797.764709,844.701538 795.185242,842.399658 
	C792.964172,840.417542 790.824768,843.129028 789.086487,844.781860 
	C788.754333,845.097717 788.641785,845.644592 788.297058,846.790405 
z"/>
<path fill="#000000" opacity="1.000000" stroke="none" 
	d="
M392.922363,547.804932 
	C423.612701,535.081604 453.193298,520.945496 482.057495,505.254852 
	C492.353149,499.658051 504.259338,499.024200 516.607422,495.323578 
	C512.252686,502.895935 505.832947,506.615509 501.250488,512.056641 
	C507.888214,510.308929 512.989075,505.996552 518.299072,502.173676 
	C532.388489,492.030090 543.910034,479.399048 553.240051,464.789062 
	C555.444641,461.336975 558.191162,458.759003 561.664795,456.532471 
	C572.600830,449.522858 583.310791,442.160736 594.109619,434.937042 
	C595.465393,434.030090 596.669678,432.816650 599.492920,432.497162 
	C585.358887,475.971619 559.559998,509.759216 521.643066,533.893616 
	C477.018799,562.297241 428.735870,568.016235 378.026703,555.763916 
	C377.897888,555.248291 377.769073,554.732666 377.640259,554.217102 
	C382.614899,552.123840 387.589539,550.030579 392.922363,547.804932 
z"/>
<path fill="#000000" opacity="1.000000" stroke="none" 
	d="
M349.721069,445.188782 
	C347.182190,444.312469 345.017670,443.376801 342.756775,442.939331 
	C335.910431,441.614624 329.889374,447.534393 331.608337,454.272156 
	C334.274353,464.722076 340.144257,472.977356 349.984650,477.930389 
	C353.477234,479.688293 357.197876,480.289978 361.094727,478.929138 
	C362.425049,478.464508 363.912018,477.753204 365.674469,478.876587 
	C365.948303,481.802917 363.650818,482.507965 361.540497,483.248932 
	C357.300293,484.737701 353.033539,484.238220 348.754517,483.305725 
	C332.080505,479.672058 315.641724,459.191559 315.648926,442.014771 
	C315.654724,428.215149 324.789581,420.970245 338.398621,423.971832 
	C351.958130,426.962555 367.412201,444.106018 368.956268,457.810730 
	C369.116638,459.234253 368.954834,460.427704 367.214966,461.991974 
	C361.935669,455.959900 357.340515,449.164917 349.721069,445.188782 
z"/>
<path fill="#000000" opacity="1.000000" stroke="none" 
	d="
M292.979187,401.174072 
	C289.551788,398.754211 288.234314,400.430298 287.561676,403.407745 
	C286.825623,406.666229 287.959381,409.624115 288.996979,412.626312 
	C289.417023,413.841736 289.775024,415.381134 288.205627,416.135651 
	C286.731659,416.844299 285.729126,415.780548 284.776031,414.798309 
	C278.634033,408.468842 277.241852,389.493073 282.399139,382.270691 
	C287.514587,375.106934 297.451752,375.107025 301.996002,382.663208 
	C307.183655,391.289398 309.071991,400.885834 308.174286,410.910492 
	C307.883759,414.154480 306.144836,416.867737 303.269958,418.663696 
	C302.381409,419.218781 301.397003,419.475647 300.444794,418.916443 
	C299.622620,418.433594 299.380707,417.414673 299.761841,416.727112 
	C304.158417,408.795624 298.094208,405.346466 292.979187,401.174072 
z"/>
<path fill="#000000" opacity="1.000000" stroke="none" 
	d="
M324.267212,290.264923 
	C315.372467,297.342743 309.621002,305.592865 310.261383,317.279419 
	C310.540894,322.380646 312.722778,326.448364 316.265808,330.069122 
	C313.977936,333.130676 311.297180,332.491028 308.801056,331.849945 
	C299.270996,329.402252 294.539825,320.970184 296.940857,309.817780 
	C299.926331,295.950775 308.822937,287.130066 321.913940,282.293701 
	C322.980255,281.899780 324.176147,281.764709 325.322479,281.701233 
	C327.007996,281.607880 328.811554,281.640564 329.608826,283.503174 
	C330.432281,285.426849 329.103729,286.617065 327.766663,287.677399 
	C326.723755,288.504517 325.628143,289.265228 324.267212,290.264923 
z"/>
<path fill="#000000" opacity="1.000000" stroke="none" 
	d="
M296.190216,347.916656 
	C297.489929,353.743713 295.657959,356.883484 291.078003,357.313477 
	C288.065033,357.596313 285.507324,356.890289 283.911865,354.018311 
	C282.554779,351.575531 282.706665,349.162506 284.343872,347.034302 
	C286.444214,344.304016 289.480255,344.329559 292.500183,344.954376 
	C293.997284,345.264130 295.139832,346.280457 296.190216,347.916656 
z"/>
<path fill="#000000" opacity="1.000000" stroke="none" 
	d="
M289.995270,438.297485 
	C291.333984,436.354370 292.872009,435.432892 294.844147,436.014221 
	C298.374939,437.054871 301.286896,438.858948 301.171295,443.094940 
	C301.103149,445.591095 299.292603,446.318054 297.058502,446.316925 
	C293.006195,446.314911 290.380981,443.545319 289.995270,438.297485 
z"/>
<path fill="#000000" opacity="1.000000" stroke="none" 
	d="
M322.994141,366.188110 
	C323.129608,367.077698 323.250702,367.602600 323.126160,368.060730 
	C322.445923,370.562805 320.807037,372.015198 318.195709,372.195496 
	C316.422913,372.317932 315.378143,371.218536 314.985107,369.664398 
	C314.386444,367.296844 315.341187,365.284760 317.389648,364.210815 
	C319.481293,363.114227 321.590515,363.365967 322.994141,366.188110 
z"/>
<path fill="#000000" opacity="1.000000" stroke="none" 
	d="
M347.147827,261.948486 
	C347.128784,262.848267 347.181854,263.414703 346.947815,263.812103 
	C345.357971,266.511902 343.004852,268.255280 339.965759,266.807953 
	C337.735352,265.745728 338.069702,263.264099 339.556488,261.689819 
	C341.837616,259.274445 344.516266,258.373688 347.147827,261.948486 
z"/>
<path fill="#000000" opacity="1.000000" stroke="none" 
	d="
M407.134644,496.475769 
	C404.911255,497.268616 403.396851,496.624268 402.077057,495.172852 
	C404.665894,493.449371 404.665894,493.449371 409.218323,493.274719 
	C409.655060,494.901672 408.492004,495.582153 407.134644,496.475769 
z"/>
</svg>